<?xml version="1.0" encoding="UTF-8"?>
<svg id="Layer_1" data-name="Layer 1" xmlns="http://www.w3.org/2000/svg" viewBox="0 0 135 135">
  <defs>
    <style>
      .cls-1 {
        fill: #fff4d7;
        stroke: #202020;
        stroke-linecap: round;
        stroke-linejoin: round;
        stroke-width: 3.75px;
      }
    </style>
  </defs>
  <path class="cls-1" d="m103.51,112.5h-63.92s-4.6-14.43,8.17-18.26c6.77-.77,42.05-1.4,47.58,0,12.77,3.83,8.17,18.26,8.17,18.26Z"/>
  <path class="cls-1" d="m95.77,93.41s20.46-50.17-29.33-61.15c-3.83-3.06-8.68-8.65-8.68-8.65,0,0-5.36,3.8-4.34,8.9-7.17,5.36-11.22,15.32-11.23,18.64-2.31,3.83-12.01,15.06-11.5,16.34-.02,4.51,2.55,9.7,14.04,10.22,3.22-.93,3.13-5.39,6.19-6.67,3.45.48,12.64-1.82,16.76-9.96,3.26,4.02,0,10.44,0,10.44,0,0-16.37,12.06-18,21.26,5.07.64,46.08.64,46.08.64Z"/>
</svg>