<?xml version="1.0" encoding="UTF-8"?>
<svg id="Layer_1" data-name="Layer 1" xmlns="http://www.w3.org/2000/svg" viewBox="0 0 135 135">
  <defs>
    <style>
      .cls-1 {
        fill: #fff4d7;
        stroke: #202020;
        stroke-linecap: round;
        stroke-linejoin: round;
        stroke-width: 3.75px;
      }
    </style>
  </defs>
  <path class="cls-1" d="m99.21,112.5h-63.92s-4.6-14.43,8.17-18.26c6.77-.77,42.05-1.4,47.58,0,12.77,3.83,8.17,18.26,8.17,18.26Z"/>
  <path class="cls-1" d="m68.28,71.09l-8.67-3.59c1.19-5.78,3.12-12.77,6.34-20.38,2.95-6.97,6.26-12.79,9.31-17.42-.51-4.13-4.01-7.22-8-7.22-4.44,0-8.04,3.6-8.04,8.04,0,1.77.57,3.4,1.54,4.73-22.19,18.12-25.04,43.69-11.59,58.17l18.09.02,18.09-.02c11.95-12.86,11.04-34.46-4.86-51.83-2.45,2.92-5.54,7.24-8.03,13-2.84,6.54-3.82,12.44-4.18,16.5Z"/>
</svg>