<?xml version="1.0" encoding="UTF-8"?>
<svg id="Layer_1" data-name="Layer 1" xmlns="http://www.w3.org/2000/svg" viewBox="0 0 135 135">
  <defs>
    <style>
      .cls-1 {
        fill: #fff4d7;
        stroke: #202020;
        stroke-linecap: round;
        stroke-linejoin: round;
        stroke-width: 3.75px;
      }
    </style>
  </defs>
  <path class="cls-1" d="m110.19,66.25c0,12.5-6.77,23.59-17.24,30.55-1.11-.94-2.55-1.73-4.38-2.28-4.96-1.26-36.6-.69-42.66,0-1.83.55-3.26,1.34-4.38,2.28-10.46-6.95-17.24-18.05-17.24-30.55,0-21.06,19.23-38.13,42.94-38.13s42.94,17.07,42.94,38.13Z"/>
  <path class="cls-1" d="m91.79,96.79l-24.54-2.89-24.54,2.89s2.42-15.24,8.16-19.67c5.83-4.5,13.93-11.64,16.38-14.67,2.45,3.03,10.55,10.17,16.38,14.67,5.74,4.43,8.16,19.67,8.16,19.67Z"/>
  <path class="cls-1" d="m99.21,112.5h-63.92s-3.25-10.18,3.29-15.71c1.24-1.05,2.84-1.93,4.88-2.55,6.77-.77,42.05-1.4,47.58,0,2.04.61,3.64,1.49,4.88,2.55,6.54,5.53,3.29,15.71,3.29,15.71Z"/>
  <path class="cls-1" d="m72.36,64.2c0,2.82-2.29,5.11-5.11,5.11s-5.11-2.29-5.11-5.11c0-1.95,1.1-3.65,2.71-4.51-1.96-3.92-3.13-8.89-3.13-14.29,0-7.35,2.16-18.89,5.53-23.1,3.37,4.21,5.53,15.75,5.53,23.1,0,5.4-1.17,10.37-3.13,14.29,1.61.86,2.71,2.56,2.71,4.51Z"/>
</svg>