<?xml version="1.0" encoding="UTF-8"?>
<svg id="Layer_1" data-name="Layer 1" xmlns="http://www.w3.org/2000/svg" viewBox="0 0 135 135">
  <defs>
    <style>
      .cls-1 {
        fill: #fff4d7;
        stroke: #202020;
        stroke-linecap: round;
        stroke-linejoin: round;
        stroke-width: 3.75px;
      }
    </style>
  </defs>
  <g>
    <path class="cls-1" d="m92.9,38.73c1.44-.14,2.9.18,4.14.93,5.25,3.16,12.82,12.79,11.65,23.09s-10.71,17.98-16.53,19.89c-1.38.45-2.87.44-4.25-.03h0s-52.58-14.65-52.58-14.65l3.03-26.69,54.53-2.54h0Z"/>
    <path class="cls-1" d="m44.26,41.39l-.88,25.87c-3.56,4.79-5.39,5.98-15.99,5.17-1.19-1.92-1.94-6.14-1.63-7.29,1-.5,7.12-1.63,7.12-1.63l.65-19.08s-6.02-1.55-6.99-2.11c-.23-1.17.81-5.33,2.12-7.17,10.64-.08,12.38,1.23,15.6,6.25Z"/>
  </g>
  <g>
    <circle class="cls-1" cx="63.55" cy="84.13" r="16.63"/>
    <line class="cls-1" x1="63.55" y1="67.5" x2="63.55" y2="96.86"/>
    <line class="cls-1" x1="49.14" y1="75.82" x2="77.95" y2="92.45"/>
    <line class="cls-1" x1="77.95" y1="75.82" x2="49.14" y2="92.45"/>
  </g>
  <path class="cls-1" d="m102.28,114.04h-63.92s-4.6-14.43,8.17-18.26c6.77-.77,42.05-1.4,47.58,0,12.77,3.83,8.17,18.26,8.17,18.26Z"/>
  <line class="cls-1" x1="91.08" y1="82.77" x2="91.08" y2="95.29"/>
</svg>