<?xml version="1.0" encoding="UTF-8"?>
<svg id="Layer_1" data-name="Layer 1" xmlns="http://www.w3.org/2000/svg" viewBox="0 0 135 135">
  <defs>
    <style>
      .cls-1 {
        fill: #fff4d7;
        stroke: #202020;
        stroke-linecap: round;
        stroke-linejoin: round;
        stroke-width: 3.75px;
      }
    </style>
  </defs>
  <path class="cls-1" d="m91.48,94.31l-23.98-.69-23.98.69s-15.33-39.18-13.28-47.98c2.04-8.79,8.81-3.64,17.62-3.34,8.81.3,19.65-5.46,19.65-5.46,0,0,10.84,5.76,19.65,5.46,8.81-.3,15.58-5.46,17.62,3.34,2.04,8.79-13.28,47.98-13.28,47.98Z"/>
  <path class="cls-1" d="m87.42,92.09c0,.75-.04,1.49-.12,2.21-.05-.02-.1-.03-.16-.05-4.56-1.16-33.7-.63-39.29,0-.05.02-.11.03-.16.05-.08-.73-.12-1.46-.12-2.21,0-11,8.92-19.92,19.92-19.92s19.92,8.92,19.92,19.92Z"/>
  <path class="cls-1" d="m99.46,112.5h-63.92s-4.55-14.28,7.98-18.19c.06-.02.13-.04.19-.06,6.77-.77,42.05-1.4,47.58,0,.06.02.13.04.19.06,12.53,3.91,7.98,18.19,7.98,18.19Z"/>
</svg>