<?xml version="1.0" encoding="UTF-8"?>
<svg id="Layer_1" data-name="Layer 1" xmlns="http://www.w3.org/2000/svg" viewBox="0 0 135 135">
  <defs>
    <style>
      .cls-1 {
        fill: #fff4d7;
        stroke: #202020;
        stroke-linecap: round;
        stroke-linejoin: round;
        stroke-width: 3.75px;
      }
    </style>
  </defs>
  <g>
    <polygon class="cls-1" points="90.57 97.32 67.25 96.59 43.93 97.32 52.19 54.7 81.38 54.7 90.57 97.32"/>
    <path class="cls-1" d="m99.21,112.5h-63.92s-4.6-14.43,8.17-18.26c6.77-.77,42.05-1.4,47.58,0,12.77,3.83,8.17,18.26,8.17,18.26Z"/>
    <path class="cls-1" d="m99.21,112.5h-63.92s-4.6-14.43,8.17-18.26c6.77-.77,42.05-1.4,47.58,0,12.77,3.83,8.17,18.26,8.17,18.26Z"/>
  </g>
  <g>
    <path class="cls-1" d="m50.82,46.22c-2.19-1-5.39-2.71-8.71-5.54-1.7-1.44-7.52-6.4-6.47-8.45.99-1.94,7.81-.6,12.14,1.06,2.82,1.08,4.95,2.43,6.34,3.43"/>
    <path class="cls-1" d="m77.97,36.72c1.96-1.39,5.06-3.29,9.17-4.74,2.1-.74,9.31-3.28,10.55-1.34,1.17,1.83-3.4,7.05-7.02,9.97-2.35,1.89-4.59,3.06-6.15,3.75"/>
    <path class="cls-1" d="m85.27,44.01c0,.82-.05,1.65-.14,2.47-.7,6.19-3.87,12.19-6.52,16.92-.8,1.42-1.55,2.73-2.17,3.88-.02.04-.03.07-.05.1-.93,10.62-3.33,12.46-6.69,13.99-.79.36-1.63.7-2.51,1.14-2.9-1.42-5.31-1.86-6.99-5.13-.02-.04-.04-.08-.06-.13-.01-.01,0-.02,0-.02-.89-1.78-1.57-4.39-2.01-8.39-.05-.47-.1-.95-.14-1.46-2.04-3.83-5.52-9.25-7.46-15.19-.72-2.21-1.23-4.48-1.38-6.78-.23-3.48.37-7,2.33-10.38.63-1.11,1.42-2.21,2.37-3.29-.62-3.35-2.03-10.04-2.03-10.92.97-3.08,5.02-4.57,6.96-2.2.7,2.82,2.02,7.93,2.37,8.89.12.08.25.15.38.22,2.37,1.33,5.66,1.81,5.66,1.81,0,0,.9-.13,2.1-.44,1.22-.33,2.73-.84,3.93-1.59.35-.96,1.67-6.07,2.37-8.89,1.94-2.37,5.99-.88,6.96,2.2,0,.88-1.41,7.57-2.03,10.92.68.77,1.28,1.55,1.79,2.34,2.12,3.21,2.96,6.58,2.96,9.93Z"/>
    <path class="cls-1" d="m60.12,77.38c0-1.79,3.05-3.24,6.82-3.24s6.82,1.45,6.82,3.24"/>
  </g>
  <path class="cls-1" d="m85.13,46.48c-.7,6.19-3.87,12.19-6.52,16.92l-3.15-1.17c-.73-.27-1.23-.94-1.29-1.72l-.54-7.75c-.04-.57.17-1.12.57-1.53l5.45-5.54c.54-.55,1.36-.73,2.09-.46l3.39,1.25Z"/>
  <path class="cls-1" d="m63.04,60.71l-3.08,6.82c-.33.74-1.04,1.24-1.83,1.31-.05-.47-.1-.95-.14-1.46-2.04-3.83-5.52-9.25-7.46-15.19l.07-.15c.36-.8,1.16-1.32,2.04-1.32h5.28c.88,0,1.68.52,2.04,1.32l3.08,6.83c.26.58.26,1.25,0,1.84Z"/>
  <path class="cls-1" d="m72.06,38.03l-2.49,5.52c-.57,1.27-1.84,2.08-3.23,2.08h-3.6c-1.39,0-2.65-.81-3.23-2.08l-2.49-5.52c-.41-.93-.41-1.99,0-2.92l2.49-5.52c.4-.88,1.14-1.55,2.02-1.86,2.37,1.33,5.66,1.81,5.66,1.81,0,0,.9-.13,2.1-.44.11.15.2.32.28.49l2.49,5.52c.42.93.42,1.99,0,2.92Z"/>
</svg>