<?xml version="1.0" encoding="UTF-8"?>
<svg id="Layer_1" data-name="Layer 1" xmlns="http://www.w3.org/2000/svg" viewBox="0 0 135 135">
  <defs>
    <style>
      .cls-1 {
        fill: #fff4d7;
        stroke: #202020;
        stroke-linecap: round;
        stroke-linejoin: round;
        stroke-width: 3.75px;
      }
    </style>
  </defs>
  <path class="cls-1" d="m99.21,112.5h-63.92s-4.6-14.43,8.17-18.26c6.77-.77,42.05-1.4,47.58,0,12.77,3.83,8.17,18.26,8.17,18.26Z"/>
  <path class="cls-1" d="m99.21,112.5h-63.92s-4.6-14.43,8.17-18.26c6.77-.77,42.05-1.4,47.58,0,12.77,3.83,8.17,18.26,8.17,18.26Z"/>
  <polygon class="cls-1" points="78.56 96.71 67.25 106.35 55.94 96.71 41.13 95.53 39.95 80.72 30.31 69.41 39.95 58.1 41.13 43.29 55.94 42.11 67.25 32.47 78.56 42.11 93.37 43.29 94.55 58.1 104.19 69.41 94.55 80.72 93.37 95.53 78.56 96.71"/>
</svg>