<?xml version="1.0" encoding="UTF-8"?>
<svg id="Layer_1" data-name="Layer 1" xmlns="http://www.w3.org/2000/svg" viewBox="0 0 135 135">
  <defs>
    <style>
      .cls-1, .cls-2 {
        fill: #fff4d7;
        stroke: #202020;
        stroke-width: 0px;
      }

      .cls-2, .cls-3 {
        fill: #fff4d7;
        stroke: #202020;
      }

      .cls-3 {
        fill: #fff4d7;
        stroke: #202020;
        stroke-linecap: round;
        stroke-linejoin: round;
        stroke-width: 3.75px;
      }
    </style>
  </defs>
  <g>
    <ellipse class="cls-3" cx="57.61" cy="51.73" rx="11.76" ry="5.41" transform="translate(-19.77 49.16) rotate(-40.02)"/>
    <g>
      <path class="cls-2" d="m70.93,45.32c3.99,1.24,8.33,2.4,12.25.96,2.99-1.11,5.37-3.76,6.13-6.86-1.31.73-2.67,1.49-4.17,1.6s-3.17-.61-3.66-2.03c-.34-.98-.05-2.1.52-2.97s1.39-1.55,2.19-2.21c-1.94.64-4.05.77-6.05.37-1.26-.25-2.63-.85-3.07-2.06-.33-.89-.06-1.91.47-2.7s1.29-1.39,2.04-1.97c-1.05.93-2.44,1.45-3.84,1.46-.92,0-1.87-.24-2.55-.85-.77-.69-1.1-1.78-1.1-2.82s.29-2.05.58-3.05c-3.42,1.48-6.69,3.3-9.76,5.41-1.67,1.15-3.31,2.42-4.44,4.1s-1.68,3.86-1.02,5.77"/>
      <path class="cls-1" d="m70.53,46.76c4.14,1.28,8.8,2.51,13.05.96,3.53-1.3,6.21-4.28,7.18-7.91.34-1.28-1.06-2.33-2.2-1.69-1.4.78-3.56,2.13-5.14.99-1.8-1.3.86-3.44,1.84-4.25,1.17-.97-.09-2.93-1.46-2.51-1.93.6-4.18.84-6.12.14-2.6-.94-.31-3,.96-3.99l-2.12-2.12c-1.02.84-2.87,1.47-4.1.71-1.47-.91-.68-3.22-.31-4.51.39-1.37-1.07-2.19-2.2-1.69-4.01,1.76-7.92,3.91-11.38,6.59-3.17,2.46-5.78,6.2-4.52,10.38.55,1.84,3.45,1.06,2.89-.8-1.08-3.59,2.13-6.36,4.77-8.18,3.07-2.12,6.35-3.91,9.76-5.41l-2.2-1.69c-.78,2.72-1.17,6.22,1.69,7.9,2.5,1.47,5.64.54,7.73-1.18,1.5-1.24-.63-3.3-2.12-2.12-1.27,1-2.5,2.13-2.93,3.75s.1,3.22,1.38,4.25c2.56,2.05,6.69,1.78,9.63.87l-1.46-2.51c-1.3,1.07-2.58,2.27-3.08,3.93-.47,1.54-.13,3.27,1.04,4.41,2.63,2.54,6.24,1.15,8.97-.37l-2.2-1.69c-.78,2.92-2.99,5.27-5.93,6.08-3.51.97-7.25-.19-10.61-1.23-1.85-.57-2.64,2.32-.8,2.89h0Z"/>
    </g>
    <path class="cls-3" d="m93.06,88.63c.01.69.01,1.39-.01,2.07-.19,4.39-1.41,5.22-4.03,8.84h-43.05c-2.63-3.61-3.85-4.44-4.02-8.83-.02-.69-.02-1.38-.01-2.08.01-.47.04-.93.09-1.4.65-8.32,4.66-16.88,9.83-22.99l15.63-2.06,15.63,2.06c5.17,6.08,9.19,14.62,9.85,22.93.04.49.07.97.09,1.45Z"/>
    <path class="cls-3" d="m47.79,69.98s5.8-10.93,8.31-13.13c2.52-2.21,2.24-4.51,1.32-6.25s-2.56-3.04-4.47-3.61c-4.96-1.49-5.92-1.12-7.08-1.12,1.08-4.88,6.79-5.28,6.79-5.28,0,0,.78-3.4,3.83-5.32,5.07-3.19,11.21-2.28,15.71,1.67,7.76,6.83,15.67,33.44,16.37,35.49-.42,1.92-15.33,7.95-22.28,7.85s-16.4-5.96-18.51-10.31Z"/>
  </g>
  <path class="cls-3" d="m99.6,112.5h-63.92s-4.08-12.8,6.11-17.48c.04-.02.08-.04.12-.06.6-.26,1.24-.51,1.94-.72.91-.1,2.33-.2,4.13-.29,10.23-.54,32.57-.84,40.93-.07,1.1.1,1.96.22,2.52.36.74.23,1.43.49,2.05.78.19.08.37.17.54.26,9.51,4.88,5.58,17.22,5.58,17.22Z"/>
</svg>