<?xml version="1.0" encoding="UTF-8"?>
<svg id="Layer_1" data-name="Layer 1" xmlns="http://www.w3.org/2000/svg" viewBox="0 0 135 135">
  <defs>
    <style>
      .cls-1 {
        fill: #fff4d7;
        stroke: #202020;
        stroke-linecap: round;
        stroke-linejoin: round;
        stroke-width: 3.75px;
      }
    </style>
  </defs>
  <g>
    <polygon class="cls-1" points="40.81 25.22 45 48.91 63.42 33.44 40.81 25.22"/>
    <polygon class="cls-1" points="93.69 24.02 89.5 47.7 71.08 32.23 93.69 24.02"/>
  </g>
  <g>
    <polygon class="cls-1" points="90.57 97.32 67.25 96.59 43.93 97.32 52.19 54.7 81.38 54.7 90.57 97.32"/>
    <path class="cls-1" d="m99.21,112.5h-63.92s-4.6-14.43,8.17-18.26c6.77-.77,42.05-1.4,47.58,0,12.77,3.83,8.17,18.26,8.17,18.26Z"/>
    <path class="cls-1" d="m99.21,112.5h-63.92s-4.6-14.43,8.17-18.26c6.77-.77,42.05-1.4,47.58,0,12.77,3.83,8.17,18.26,8.17,18.26Z"/>
    <path class="cls-1" d="m99.21,112.5h-63.92s-4.6-14.43,8.17-18.26c6.77-.77,42.05-1.4,47.58,0,12.77,3.83,8.17,18.26,8.17,18.26Z"/>
    <path class="cls-1" d="m99.21,112.5h-63.92s-4.6-14.43,8.17-18.26c6.77-.77,42.05-1.4,47.58,0,12.77,3.83,8.17,18.26,8.17,18.26Z"/>
    <g>
      <path class="cls-1" d="m89.58,51.55v6.47c0,6.15-4.68,11.25-10.66,11.92v-7.84c0-4.6-3.77-8.37-8.37-8.37h-6.06c-4.6,0-8.37,3.77-8.37,8.37v7.88c-6.17-.47-11.07-5.67-11.07-11.96v-6.47c0-10.77,8.82-19.58,19.59-19.58h5.36c10.77,0,19.58,8.81,19.58,19.58Z"/>
      <rect class="cls-1" x="56.12" y="53.73" width="22.8" height="26.52" rx="8.37" ry="8.37"/>
      <path class="cls-1" d="m63.46,59.56c4.89,1.17,3.59,7.17,3.33,11.22-5.67,3.98-9.3,5.68-9.3,5.68"/>
      <path class="cls-1" d="m71.19,59.56c-4.89,1.17-3.59,7.17-3.33,11.22,5.67,3.98,9.3,5.68,9.3,5.68"/>
    </g>
  </g>
</svg>