<?xml version="1.0" encoding="UTF-8"?>
<svg id="Layer_1" data-name="Layer 1" xmlns="http://www.w3.org/2000/svg" viewBox="0 0 135 135">
  <defs>
    <style>
      .cls-1 {
        fill: #fff4d7;
        stroke: #202020;
        stroke-linecap: round;
        stroke-linejoin: round;
        stroke-width: 3.75px;
      }
    </style>
  </defs>
  <path class="cls-1" d="m96.92,99.78c-1.97-7.73-10.44-20.86-7.56-26.35s5.87-19.87,4.59-20.63-22.62-3.89-22.62-3.89c0,0-29.97,39.1-24.37,49.23,5.6,10.13,49.95,1.65,49.95,1.65Z"/>
  <path class="cls-1" d="m102.51,112.5h-63.92s-4.6-14.43,8.17-18.26c6.77-.77,42.05-1.4,47.58,0,12.77,3.83,8.17,18.26,8.17,18.26Z"/>
  <line class="cls-1" x1="56.54" y1="54.14" x2="56.54" y2="54.14"/>
  <path class="cls-1" d="m81.11,70.01c-.05.05-.11.11-.16.16"/>
  <g>
    <path class="cls-1" d="m91.54,74.41c-3.37-.59-6.08-.99-9.49-.57,10.31-10.3,8.64-38.38-9.42-44.34-.53-2.94-3.26-4.82-9.01-1.94-1.33.3-5.11.55-8.7,1.73,1.77-1.99,5.95-5.97,10.97-7.42,10.1-2.9,21.05,2.74,26.27,10.5,3.75,5.58,3.88,11.27,4.04,18.47.23,10.04-2.79,18.53-4.66,23.57Z"/>
    <path class="cls-1" d="m54.92,29.29c3.59-1.17,7.37-1.43,8.7-1.73,5.75-2.88,8.48-1,9.01,1.94,18.07,5.95,19.74,34.03,9.42,44.34"/>
  </g>
  <path class="cls-1" d="m42,48.16c-2.41-2.29-3.84-6.22-3.71-7.32.25-2.21,14.24-10.77,16.63-11.55,2.99-2.89,6.19-5.7,7.52-6,5.75-2.88,9.65,3.27,10.19,6.21,18.07,5.95,19.74,34.03,9.42,44.34-18.6,2.33-36.26,17.32-36.26,17.32-4.39-16.64,1.02-26.06,10.85-32.62.28-.19.56-.38.83-.57-3.54-2.27-7.63.08-9.44,1.31-1.8,1.23-4.26-3.77-3.79-6.15,1.5-.6,2.3-2.06,2.04-3.22-.32-1.44-2.32-2.58-4.29-1.75Z"/>
  <path class="cls-1" d="m62.44,80.01c10.19-7.43,18.67-31.73,10.8-42.45"/>
  <path class="cls-1" d="m57.48,57.97h0c9.28-6.54,13.82-15.86,5.07-22.87"/>
</svg>