<?xml version="1.0" encoding="UTF-8"?>
<svg id="Layer_1" data-name="Layer 1" xmlns="http://www.w3.org/2000/svg" viewBox="0 0 135 135">
  <defs>
    <style>
      .cls-1 {
        fill: #fff4d7;
        stroke: #202020;
        stroke-linecap: round;
        stroke-linejoin: round;
        stroke-width: 3.75px;
      }
    </style>
  </defs>
  <path class="cls-1" d="m60.72,101.07s-.03-.02-.05-.03h-.01s.04.02.06.03Z"/>
  <path class="cls-1" d="m86.41,51.89c0,5.27-4.13,8.37-5.5,7.79,3.67-22.46-18.91-33.81-18.91-33.81.8,11.35-6.07,21.66-11.92,28.77-12.04,14.63-15.17,33.39,7.68,46.4h.01c-9.46-6.08-4-22.37-.97-26.65-1.53,3.29,3.13,8.48,5.2,9.93-1.76-14.14,4.28-18.34,8.94-25.29-.61,5.04,3.67,11,5.5,13.83,12.75,12.88,4.34,24.89,1.37,28.35h.55c26.68-18.54,12.66-42.23,8.05-49.32Z"/>
  <path class="cls-1" d="m99.46,112.5h-63.92s-4.6-14.43,8.17-18.26c6.77-.77,42.05-1.4,47.58,0,12.77,3.83,8.17,18.26,8.17,18.26Z"/>
</svg>