<?xml version="1.0" encoding="UTF-8"?>
<svg id="Layer_1" data-name="Layer 1" xmlns="http://www.w3.org/2000/svg" viewBox="0 0 135 135">
  <defs>
    <style>
      .cls-1 {
        fill: #fff4d7;
        stroke: #202020;
        stroke-linecap: round;
        stroke-linejoin: round;
        stroke-width: 3.75px;
      }
    </style>
  </defs>
  <path class="cls-1" d="m117.76,77.8c0,3.93-3.18,7.11-7.11,7.11s-7.05-3.13-7.11-7.01c0-.04,0-.07,0-.1,0-.94.18-1.83.51-2.65-7.35-2.08-15.02,2.45-15.1,18.04-.05.07-.1.15-.15.22h-43.11c-.05-.07-.1-.15-.15-.22-.07-15.59-7.75-20.13-15.1-18.04.33.82.51,1.71.51,2.65,0,.03,0,.07,0,.1-.06,3.88-3.22,7.01-7.11,7.01s-7.11-3.18-7.11-7.11,3.18-7.11,7.11-7.11c1.17,0,2.28.29,3.26.79,4.24-5.13,9.57-7.89,14.43-7.84.06,0,.13,0,.19,0,1.58.04,3.12.38,4.54,1.04,0-.02,0-.04,0-.07-.54-8.39-2.15-13.43-6.31-16.28-1.3,1.71-3.35,2.81-5.66,2.81-3.93,0-7.11-3.18-7.11-7.11s3.18-7.11,7.11-7.11c3.23,0,5.96,2.15,6.82,5.1,0,0,0,.01,0,.02,5.69.65,12.3,3.12,17.64,6.62l4.21-10.04v-.02c-2.42-1.46-4.04-4.11-4.04-7.15,0-4.46,3.5-8.1,7.9-8.32.07,0,.14,0,.21,0,.06,0,.12,0,.18,0,.07,0,.14,0,.22,0,.07,0,.14,0,.21,0,4.4.22,7.9,3.86,7.9,8.32,0,3.04-1.62,5.69-4.05,7.15v.02s4.22,10.04,4.22,10.04c5.33-3.51,11.95-5.98,17.63-6.62,0,0,0-.01,0-.02.87-2.95,3.6-5.1,6.82-5.1,3.93,0,7.11,3.18,7.11,7.11s-3.18,7.11-7.11,7.11c-2.31,0-4.37-1.1-5.66-2.81-4.15,2.85-5.76,7.89-6.3,16.28,0,.02,0,.04,0,.07,1.43-.65,2.96-1,4.54-1.04.06,0,.13,0,.19,0,4.86-.05,10.19,2.71,14.43,7.84.98-.51,2.08-.79,3.26-.79,3.93,0,7.11,3.18,7.11,7.11Z"/>
  <path class="cls-1" d="m75.46,93.59c-.01.24-.03.48-.05.72-.04-.02-.07-.03-.11-.05-.77-.27-2.51-.45-4.77-.56,1.58-.05,3.26-.09,4.93-.11Z"/>
  <path class="cls-1" d="m88.38,92.09c0,.75-.03,1.49-.09,2.21-.04-.02-.07-.03-.11-.05-1.64-.59-7.78-.74-13.93-.67-1.67.02-3.35.06-4.93.11-2.57-.12-5.82-.15-9.08-.11-5.97.07-11.98.36-13.93.67-.04.02-.07.03-.11.05-.06-.73-.09-1.46-.09-2.21,0-11,2.56-19.93,10.34-19.93,2.57,0,8.72,4.72,10.79,6.42,2.07-1.7,8.23-6.42,10.79-6.42,7.78,0,10.34,8.92,10.34,19.93Z"/>
  <path class="cls-1" d="m70.53,93.69c-4.05.13-7.53.34-8.92.56-.04.02-.07.03-.11.05-.02-.24-.03-.48-.05-.72,3.26-.04,6.51-.01,9.08.11Z"/>
  <path class="cls-1" d="m99.21,112.5h-63.92s-4.55-14.28,7.98-18.19c.06-.02.13-.04.19-.06,6.77-.77,42.05-1.4,47.58,0,.06.02.13.04.19.06,12.53,3.91,7.98,18.19,7.98,18.19Z"/>
</svg>