<?xml version="1.0" encoding="UTF-8"?>
<svg id="Layer_1" data-name="Layer 1" xmlns="http://www.w3.org/2000/svg" viewBox="0 0 135 135">
  <defs>
    <style>
      .cls-1 {
        fill: #fff4d7;
        stroke: #202020;
        stroke-linecap: round;
        stroke-linejoin: round;
        stroke-width: 3.75px;
      }
    </style>
  </defs>
  <path class="cls-1" d="m107.89,53.65c-9.19-17.62-32.94-5.62-32.94-5.62l-1.53-7.4h7.15v-10.98h-7.15v-7.66h-12.35v7.66h-7.15v10.98h7.15l-1.53,7.4s-23.74-12-32.94,5.62c-11.23,22.34,16.85,40.59,16.85,40.59,6.77-.77,42.05-1.4,47.58,0,0,0,28.08-18.25,16.85-40.59Zm-49.75,26.68h-4.6s-9.18-8.3-9.49-14.32c-.08-1.54.82-2.97,2.24-3.59,6.57-2.85,11.85,1.44,11.85,1.44v16.47Zm32.02-14.32c-.31,6.02-9.49,14.32-9.49,14.32h-4.6v-16.47s5.27-4.28,11.85-1.44c1.42.61,2.31,2.05,2.24,3.59Z"/>
  <path class="cls-1" d="m99.21,112.5h-63.92s-4.6-14.43,8.17-18.26c6.77-.77,42.05-1.4,47.58,0,12.77,3.83,8.17,18.26,8.17,18.26Z"/>
</svg>