<?xml version="1.0" encoding="UTF-8"?>
<svg id="Layer_1" data-name="Layer 1" xmlns="http://www.w3.org/2000/svg" viewBox="0 0 135 135">
  <defs>
    <style>
      .cls-1 {
        fill: #fff4d7;
        stroke: #202020;
        stroke-linecap: round;
        stroke-linejoin: round;
        stroke-width: 3.75px;
      }
    </style>
  </defs>
  <path class="cls-1" d="m99.18,112.5h-63.92s-4.6-14.43,8.17-18.26c6.77-.77,42.05-1.4,47.58,0,12.77,3.83,8.17,18.26,8.17,18.26Z"/>
  <path class="cls-1" d="m94.88,59.89l-27.67,26.3-27.67-26.3s2.04-19.4,14.55-24c9.7-7.4,13.11-12.77,13.11-12.77,0,0,3.41,5.36,13.11,12.77,12.51,4.6,14.55,24,14.55,24Z"/>
  <path class="cls-1" d="m30.87,56.57l9.7-3.32s16.27,21.65,26.65,26.65,13.95,8.84,13.95,8.84l-36.26,4.67-14.04-36.84Z"/>
  <path class="cls-1" d="m46.19,93.41s32.17-16.42,46.47-40.16c4.8,1.02,10.98,3.83,10.98,3.83l-14.81,36.77-42.64-.43Z"/>
</svg>