<?xml version="1.0" encoding="UTF-8"?>
<svg id="Layer_1" data-name="Layer 1" xmlns="http://www.w3.org/2000/svg" viewBox="0 0 135 135">
  <defs>
    <style>
      .cls-1 {
        fill: #fff4d7;
        stroke: #202020;
        stroke-linecap: round;
        stroke-linejoin: round;
        stroke-width: 3.75px;
      }
    </style>
  </defs>
  <path class="cls-1" d="m81.69,59.53c-3-1.65-12.68-1.67-14.19-1.66-1.51,0-11.19.01-14.19,1.66-.49,4.21-3.27,35.9-3.27,35.9h34.91s-2.78-31.69-3.27-35.9Z"/>
  <path class="cls-1" d="m52.59,43.79l-.06-18.35c0-2.45,2.01-4.46,4.46-4.46,1.23,0,2.34.5,3.15,1.31.81.81,1.31,1.92,1.31,3.15v21.73-26.63c0-2.45,2.01-4.46,4.46-4.46,1.23,0,2.34.5,3.15,1.31.81.81,1.31,1.92,1.31,3.15v26.79-21.89c0-2.45,2.01-4.46,4.46-4.46,1.23,0,2.34.5,3.15,1.31.81.81,1.31,1.92,1.31,3.15v21.89-15.24c0-2.45,2.01-4.46,4.46-4.46,1.23,0,2.34.5,3.15,1.31.81.81,1.31,1.92,1.31,3.15v15.24l-.26,11.02c.83,13.17-9.06,21.5-20.85,21.5h0c-11.79,0-21.88-8.68-21.44-21.44l-.91-10.13-.99-6.21c-.11-.67.08-1.35.51-1.88.76-.93,2.22-2.05,4.58-1.3,3.74,1.19,7.24,15.16,7.24,15.16,5.44.6,10.09,3.65,10.09,13.32"/>
  <path class="cls-1" d="m99.46,112.5h-63.92s-4.6-14.43,8.17-18.26c6.77-.77,42.05-1.4,47.58,0,12.77,3.83,8.17,18.26,8.17,18.26Z"/>
</svg>