<?xml version="1.0" encoding="UTF-8"?>
<svg id="Layer_1" data-name="Layer 1" xmlns="http://www.w3.org/2000/svg" viewBox="0 0 135 135">
  <defs>
    <style>
      .cls-1 {
        fill: #fff4d7;
        stroke: #202020;
        stroke-linecap: round;
        stroke-linejoin: round;
        stroke-width: 3.75px;
      }
    </style>
  </defs>
  <path class="cls-1" d="m99.46,112.5h-63.92s-4.6-14.42,8.17-18.26c0,0,13.97-9.05,13.46-24.99h-8.17l-2.55-5.72s6.89-3.41,10.74-6.38c-6.21-5.64-7.59-13.39-4.73-19.84,5.75-12.94,24.33-12.94,30.08,0,2.86,6.45,1.48,14.2-4.73,19.84,3.84,2.97,10.74,6.38,10.74,6.38l-2.55,5.72h-8.17c-.51,15.81,13.25,24.85,13.46,24.99,0,0,0,0,0,0,12.77,3.83,8.17,18.26,8.17,18.26Z"/>
</svg>