<?xml version="1.0" encoding="UTF-8"?>
<svg id="Layer_1" data-name="Layer 1" xmlns="http://www.w3.org/2000/svg" viewBox="0 0 135 135">
  <defs>
    <style>
      .cls-1 {
        fill: #fff4d7;
        stroke: #202020;
        stroke-linecap: round;
        stroke-linejoin: round;
        stroke-width: 3.75px;
      }
    </style>
  </defs>
  <path class="cls-1" d="m110.03,51.32c0,4.22-3.13,7.71-7.2,8.26l-14.62,34.27c-8.23-.71-28.69-.45-39.28.03h-2.63l-14.63-34.3c-4.07-.55-7.2-4.04-7.2-8.26,0-4.6,3.73-8.33,8.33-8.33s8.33,3.73,8.33,8.33c0,1.42-.35,2.74-.97,3.91l9.7,10.11,1.7-25.03c-3.08-1.22-5.26-4.23-5.26-7.75,0-4.6,3.73-8.33,8.33-8.33s8.33,3.73,8.33,8.33c0,3.03-1.63,5.69-4.05,7.15l8.34,19.87,8.34-19.87c-2.42-1.46-4.05-4.12-4.05-7.15,0-4.6,3.73-8.33,8.33-8.33s8.33,3.73,8.33,8.33c0,3.52-2.18,6.53-5.26,7.75l1.7,25.03,9.7-10.11c-.62-1.17-.97-2.49-.97-3.91,0-4.6,3.73-8.33,8.33-8.33s8.33,3.73,8.33,8.33Z"/>
  <path class="cls-1" d="m99.21,112.5h-63.92s-4.6-14.43,8.17-18.26c1.13-.13,3.04-.25,5.47-.36,10.59-.48,31.05-.74,39.28-.03,1.25.11,2.22.24,2.83.39,12.77,3.83,8.17,18.26,8.17,18.26Z"/>
</svg>