<?xml version="1.0" encoding="UTF-8"?>
<svg id="Layer_1" data-name="Layer 1" xmlns="http://www.w3.org/2000/svg" viewBox="0 0 135 135">
  <defs>
    <style>
      .cls-1 {
        fill: #fff4d7;
        stroke: #202020;
        stroke-linecap: round;
        stroke-linejoin: round;
        stroke-width: 3.75px;
      }
    </style>
  </defs>
  <path class="cls-1" d="m89.57,93.99c-8.23-1.02-37.16-.51-45.16.16h-.02s3.6-31.68,4.23-35.9c3.89-1.64,16.42-1.67,18.37-1.66,1.96-.01,14.49.02,18.37,1.66.61,4.05,3.94,33.34,4.21,35.74Z"/>
  <path class="cls-1" d="m85.62,58.25h-.26c-3.88-1.64-16.41-1.67-18.37-1.66-1.95-.01-14.48.02-18.37,1.66-7.02-4.85-8.8-7.4-8.17-22.59,2.69-1.79,8.69-3.07,10.35-2.68.76,1.4,2.68,10.08,2.68,10.08h5.1l1.79-12c2.08-.2,4.37-.32,6.83-.32s4.64.13,6.67.32l1.79,12h5.11s1.91-8.68,2.68-10.08c1.66-.39,7.66.89,10.34,2.68.64,15.19-1.15,17.74-8.17,22.59Z"/>
  <path class="cls-1" d="m99.21,112.5h-63.92s-4.6-14.43,8.17-18.26c.27-.03.58-.06.93-.09h.02c8-.67,36.93-1.18,45.16-.16.61.07,1.1.16,1.47.25,12.77,3.83,8.17,18.26,8.17,18.26Z"/>
</svg>