<?xml version="1.0" encoding="UTF-8"?>
<svg id="Layer_1" data-name="Layer 1" xmlns="http://www.w3.org/2000/svg" viewBox="0 0 135 135">
  <defs>
    <style>
      .cls-1 {
        fill: #fff4d7;
        stroke: #202020;
        stroke-linecap: round;
        stroke-linejoin: round;
        stroke-width: 3.75px;
      }
    </style>
  </defs>
  <path class="cls-1" d="m99.21,112.5h-63.92s-4.6-14.43,8.17-18.26c6.77-.77,42.05-1.4,47.58,0,12.77,3.83,8.17,18.26,8.17,18.26Z"/>
  <g>
    <line class="cls-1" x1="65.81" y1="23.26" x2="65.81" y2="83.58"/>
    <g>
      <path class="cls-1" d="m87.93,67.64h-41.6c1.66-3.36,4.3-9.79,4.41-18.28.12-9.09-2.73-15.98-4.41-19.38h41.6c1.68,3.03,4.9,9.77,4.88,18.91-.02,9.05-3.2,15.72-4.88,18.75Z"/>
      <path class="cls-1" d="m83.68,48.89c-.02,9.05-3.2,15.72-4.88,18.75h-39.55c1.68-3.03,4.87-9.7,4.88-18.75.02-9.14-3.2-15.88-4.88-18.91h39.55c1.68,3.03,4.9,9.77,4.88,18.91Z"/>
      <path class="cls-1" d="m74.38,48.89c-.02,9.05-3.2,15.72-4.88,18.75h-30.25c1.68-3.03,4.87-9.7,4.88-18.75.02-9.14-3.2-15.88-4.88-18.91h30.25c1.68,3.03,4.9,9.77,4.88,18.91Z"/>
      <path class="cls-1" d="m64.77,48.89c-.02,9.05-3.2,15.72-4.88,18.75h-20.64c1.68-3.03,4.87-9.7,4.88-18.75.02-9.14-3.2-15.88-4.88-18.91h20.64c1.68,3.03,4.9,9.77,4.88,18.91Z"/>
      <path class="cls-1" d="m54.37,48.89c-.02,9.05-3.2,15.72-4.88,18.75h-10.24c1.68-3.03,4.87-9.7,4.88-18.75.02-9.14-3.2-15.88-4.88-18.91h10.24c1.68,3.03,4.9,9.77,4.88,18.91Z"/>
    </g>
    <path class="cls-1" d="m95.07,93.41h-55.64c-3.52,0-6.77-1.89-8.5-4.95l-8.36-14.71c11.22,2.87,26.29,5.57,44.17,5.62,18.36.05,33.79-2.7,45.19-5.62-2.79,4.9-5.57,9.81-8.36,14.71-1.74,3.06-4.98,4.95-8.5,4.95Z"/>
  </g>
</svg>