<?xml version="1.0" encoding="UTF-8"?>
<svg id="Layer_1" data-name="Layer 1" xmlns="http://www.w3.org/2000/svg" viewBox="0 0 135 135">
  <defs>
    <style>
      .cls-1 {
        fill: #fff4d7;
        stroke: #202020;
        stroke-linecap: round;
        stroke-linejoin: round;
        stroke-width: 3.75px;
      }
    </style>
  </defs>
  <path class="cls-1" d="m97.83,95.78c-1.97-7.73-2.88-19.09,0-24.58s2.37-20.68,1.09-21.45-26.68-4.85-26.68-4.85c0,0-29.97,39.1-24.37,49.23,5.6,10.13,49.95,1.65,49.95,1.65Z"/>
  <path class="cls-1" d="m102.51,112.5h-63.92s-4.6-14.43,8.17-18.26c6.77-.77,42.05-1.4,47.58,0,12.77,3.83,8.17,18.26,8.17,18.26Z"/>
  <path class="cls-1" d="m71.6,56.14s2.43,14.43,5.23,16.47c6.26,2.17,32.68-23.23,25.02-41.74-8.81-11.49-33.96-5.87-33.96-5.87-11.06-2.81-26.68,4.76-26.04,23.19-13.79,11.54-11.49,40.51-8.04,48.81.85,2.12.89,4.72,0,7.53s10.72,3.73,11.87-5.41c0,0-3.46-11.22-2.3-21.27.68-5.84,3.98-11.64,7.66-13.66,8.3,4.85,18.89,6.57,20.94.86.78-5.32-.38-8.9-.38-8.9Z"/>
</svg>