<?xml version="1.0" encoding="utf-8"?>
<!-- Generator: Adobe Illustrator 20.1.0, SVG Export Plug-In . SVG Version: 6.00 Build 0)  -->
<svg version="1.1" id="Layer_1" xmlns="http://www.w3.org/2000/svg" xmlns:xlink="http://www.w3.org/1999/xlink" x="0px" y="0px"
	 viewBox="0 0 100 125" style="enable-background:new 0 0 100 125;" xml:space="preserve">
<style type="text/css">
	.st0{fill:#3EB3E0;}
</style>
<path class="st0" d="M85,92.5v-75c0-1.4-1.1-2.5-2.5-2.5H69.6c-1-2.9-3.9-5-7.3-5h-2.7c-1-2.9-3.8-5-7.1-5h-5c-3.3,0-6,2.1-7.1,5
	h-2.7c-3.3,0-6.2,2.1-7.3,5H17.5c-1.4,0-2.5,1.1-2.5,2.5v75c0,1.4,1.1,2.5,2.5,2.5h65C83.9,95,85,93.9,85,92.5z M37.7,15h4.8
	c1.4,0,2.5-1.1,2.5-2.5c0-1.4,1.1-2.5,2.5-2.5h5c1.4,0,2.5,1.1,2.5,2.5c0,1.4,1.1,2.5,2.5,2.5h4.8c1.3,0,2.4,0.8,2.6,2
	c0.2,1.1-0.2,1.8-0.5,2.1C64,19.7,63.3,20,62.5,20h-25c-0.7,0-1.4-0.3-1.9-0.8c-0.5-0.5-0.7-1.2-0.6-1.9C35.1,16,36.3,15,37.7,15z
	 M80,90H20V20h10.4c0.3,0.9,0.8,1.8,1.5,2.5c1.4,1.6,3.4,2.5,5.6,2.5h25c2.3,0,4.4-1,5.8-2.7c0.6-0.7,1-1.4,1.3-2.3H80V90z"/>
<path class="st0" d="M52.5,35h-25c-1.4,0-2.5,1.1-2.5,2.5s1.1,2.5,2.5,2.5h25c1.4,0,2.5-1.1,2.5-2.5S53.9,35,52.5,35z"/>
<path class="st0" d="M52.5,45h-25c-1.4,0-2.5,1.1-2.5,2.5s1.1,2.5,2.5,2.5h25c1.4,0,2.5-1.1,2.5-2.5S53.9,45,52.5,45z"/>
<path class="st0" d="M52.5,55h-25c-1.4,0-2.5,1.1-2.5,2.5s1.1,2.5,2.5,2.5h25c1.4,0,2.5-1.1,2.5-2.5S53.9,55,52.5,55z"/>
<path class="st0" d="M52.5,65h-25c-1.4,0-2.5,1.1-2.5,2.5s1.1,2.5,2.5,2.5h25c1.4,0,2.5-1.1,2.5-2.5S53.9,65,52.5,65z"/>
<path class="st0" d="M52.5,75h-25c-1.4,0-2.5,1.1-2.5,2.5s1.1,2.5,2.5,2.5h25c1.4,0,2.5-1.1,2.5-2.5S53.9,75,52.5,75z"/>
<path class="st0" d="M60,40c0,4.9,0.6,11.4,1.5,16.5c1.4,7.9,3.1,11,6,11s4.6-3.1,6-11C74.4,51.4,75,44.9,75,40
	c0-4.1-3.4-7.5-7.5-7.5S60,35.9,60,40z M70,40c0,7.3-1.2,16.1-2.5,20.4C66.2,56.1,65,47.3,65,40c0-1.4,1.1-2.5,2.5-2.5
	S70,38.6,70,40z"/>
<path class="st0" d="M67.5,72.5c-2.8,0-5,2.2-5,5s2.2,5,5,5s5-2.2,5-5S70.3,72.5,67.5,72.5z"/>
</svg>
