<svg width="129" height="129" viewBox="0 0 129 129" fill="none" xmlns="http://www.w3.org/2000/svg">
<path d="M7.64761 38.5017C13.8859 24.8792 24.8792 13.8859 38.5017 7.6476C46.4187 4.02166 55.2227 2 64.5 2C73.7773 2 82.5813 4.02166 90.4983 7.6476C104.121 13.8859 115.114 24.8792 121.352 38.5017C124.978 46.4187 127 55.2227 127 64.5C127 73.7773 124.978 82.5813 121.352 90.4983C115.114 104.121 104.121 115.114 90.4983 121.352C82.5813 124.978 73.7773 127 64.5 127C55.2227 127 46.4187 124.978 38.5017 121.352C24.8792 115.114 13.8859 104.121 7.64761 90.4983C4.02166 82.5813 2 73.7773 2 64.5C2 55.2227 4.02166 46.4187 7.64761 38.5017ZM38.0712 28.1232C36.5079 29.2598 34.6931 30.0424 32.7404 30.3852C26.9307 31.4044 22.701 36.1893 22.17 41.8183H41.8183V23.8432C40.8941 25.5537 39.6047 27.0089 38.0712 28.1232ZM22.17 87.1817C22.701 92.8107 26.9307 97.5956 32.7404 98.6148C34.6931 98.9576 36.5079 99.7402 38.0712 100.877C39.6047 101.991 40.8941 103.446 41.8183 105.157V87.1817H22.17ZM70.142 18.2329C68.3626 19.103 66.4304 19.5372 64.5 19.5372C62.5696 19.5372 60.6374 19.103 58.858 18.2329C57.3264 17.4839 55.7165 17.0665 54.1104 16.9565V41.8183H74.8896V16.9565C73.2835 17.0665 71.6736 17.4839 70.142 18.2329ZM87.1817 41.8183H106.83C106.299 36.1893 102.069 31.4044 96.2596 30.3852C94.3069 30.0424 92.4921 29.2598 90.9288 28.1232C89.3953 27.0089 88.1059 25.5537 87.1817 23.8432V41.8183ZM110.247 73.4326C112.656 70.9414 113.86 67.7197 113.86 64.5C113.86 61.2802 112.656 58.0586 110.247 55.5674C109.804 55.1091 109.399 54.6228 109.034 54.1104H87.1817V74.8896H109.034C109.399 74.3772 109.804 73.8909 110.247 73.4326ZM90.9288 100.877C92.4921 99.7402 94.3069 98.9576 96.2596 98.6148C102.069 97.5956 106.299 92.8107 106.83 87.1817H87.1817V105.157C88.1059 103.446 89.3953 101.991 90.9288 100.877ZM58.858 110.767C60.6374 109.897 62.5696 109.463 64.5 109.463C66.4304 109.463 68.3626 109.897 70.142 110.767C71.6736 111.516 73.2835 111.934 74.8896 112.043V87.1817H54.1104V112.043C55.7165 111.934 57.3264 111.516 58.858 110.767ZM41.8183 74.8896V54.1104H19.9657C19.6005 54.6228 19.1962 55.1091 18.7527 55.5674C16.3435 58.0586 15.1398 61.2802 15.1398 64.5C15.1398 67.7197 16.3435 70.9414 18.7527 73.4326C19.1962 73.8909 19.6005 74.3772 19.9657 74.8896H41.8183Z" stroke="#202020" stroke-width="4" stroke-linecap="round" stroke-linejoin="round"/>
<path d="M41.8187 74.8898H19.9662C20.7804 76.0226 21.3972 77.2766 21.7996 78.5958C22.1741 79.8107 22.3661 81.0796 22.3661 82.3634C22.3661 82.9633 22.3251 83.5633 22.2394 84.1633C22.1536 84.7745 22.1127 85.3782 22.1127 85.98C22.1127 86.2818 22.122 86.5837 22.1443 86.8818C22.1518 86.9824 22.1592 87.0812 22.1704 87.1818H41.8187V105.157C41.8355 105.187 41.8522 105.216 41.869 105.248C41.9491 105.399 42.0311 105.548 42.1187 105.695C43.9745 108.887 47.0266 111.004 50.4047 111.762C51.327 111.969 52.2717 112.075 53.2238 112.075C53.5182 112.075 53.8145 112.064 54.1108 112.044V87.1818H74.8901V112.044C75.1863 112.064 75.4826 112.075 75.777 112.075C76.7291 112.075 77.6738 111.969 78.5961 111.762C81.9743 111.004 85.0263 108.887 86.8821 105.695C86.9697 105.548 87.0517 105.399 87.1318 105.248C87.1486 105.216 87.1654 105.187 87.1821 105.157V87.1818H106.83C106.842 87.0812 106.849 86.9824 106.856 86.8818C106.879 86.5837 106.888 86.2818 106.888 85.98C106.888 85.3782 106.847 84.7745 106.761 84.1633C106.676 83.5633 106.635 82.9633 106.635 82.3634C106.635 81.0796 106.827 79.8107 107.201 78.5958C107.604 77.2766 108.22 76.0226 109.035 74.8898H87.1821V54.1105H109.035C108.22 52.9776 107.604 51.7236 107.201 50.4044C106.827 49.1895 106.635 47.9206 106.635 46.6368C106.635 46.0369 106.676 45.4369 106.761 44.8369C106.847 44.2258 106.888 43.6202 106.888 43.0202C106.888 42.7184 106.879 42.4165 106.856 42.1184C106.849 42.0178 106.842 41.919 106.83 41.8184H87.1821V23.8433C87.1654 23.8135 87.1486 23.7837 87.1318 23.752C87.0517 23.6011 86.9697 23.4521 86.8821 23.3049C85.0263 20.1131 81.9743 17.9964 78.5961 17.238C77.6738 17.0312 76.7291 16.925 75.777 16.925C75.4826 16.925 75.1863 16.9362 74.8901 16.9567V41.8184H54.1108V16.9567C52.8586 16.8691 51.6102 16.9678 50.4047 17.2399C47.0247 17.9982 43.9745 20.1131 42.1187 23.3049C42.0311 23.4521 41.9491 23.6011 41.869 23.752C41.8522 23.7837 41.8355 23.8135 41.8187 23.8433V41.8184H22.1704C22.1592 41.919 22.1518 42.0178 22.1443 42.1184C22.122 42.4165 22.1127 42.7184 22.1127 43.0202C22.1127 43.6202 22.1536 44.2258 22.2394 44.8369C22.3251 45.4369 22.3661 46.0369 22.3661 46.6368C22.3661 47.9206 22.1741 49.1895 21.7996 50.4044C21.3972 51.7236 20.7804 52.9776 19.9662 54.1105H41.8187V74.8898Z" stroke="#202020" stroke-width="4" stroke-linecap="round" stroke-linejoin="round"/>
<path d="M54.1101 54.1103H74.8894V74.8896H54.1101V54.1103Z" stroke="#202020" stroke-width="4" stroke-linecap="round" stroke-linejoin="round"/>
</svg>
