<svg width="220" height="30" viewBox="0 0 220 30" fill="none" xmlns="http://www.w3.org/2000/svg">
<path d="M15.0154 14.2277C14.3262 14.2277 13.7354 14.3754 13.2431 14.6708C12.7344 14.9826 12.2421 15.36 11.7662 15.8031C11.2739 16.2461 10.7323 16.681 10.1415 17.1077C9.53436 17.5344 8.79591 17.8626 7.92616 18.0923C8.1395 18.2892 8.36923 18.5108 8.61539 18.7569C8.84513 19.0195 9.11591 19.3149 9.4277 19.6431L16.4431 27.3723L13.3908 29.9815L1.31053e-06 14.9908L13.3908 -7.93925e-06L16.4431 2.60922L9.42771 10.3385C8.75488 11.0605 8.21334 11.6185 7.80309 12.0123C7.39283 12.4061 6.88411 12.7918 6.27693 13.1692L6.27693 14.1046C7.06462 13.9077 7.72923 13.6041 8.27077 13.1938C8.81231 12.7836 9.36205 12.3569 9.92 11.9138C10.478 11.4872 11.1508 11.1179 11.9385 10.8061C12.7262 10.4944 13.7518 10.3385 15.0154 10.3385C16.4267 10.3385 17.5836 10.601 18.4862 11.1261C19.3887 11.6513 20.16 12.2585 20.8 12.9477C21.44 13.6369 22.0718 14.2441 22.6954 14.7692C23.3026 15.2944 24.0246 15.5569 24.8615 15.5569C25.7149 15.5569 26.4533 15.3108 27.0769 14.8185C27.6841 14.3261 28.3077 13.7518 28.9477 13.0954C29.5877 12.4554 30.3508 11.881 31.2369 11.3723C32.1395 10.88 33.2964 10.6338 34.7077 10.6338C36.1026 10.6338 37.2513 10.8554 38.1539 11.2985C39.0564 11.7415 39.8277 12.2503 40.4677 12.8246C41.1241 13.399 41.7559 13.9077 42.3631 14.3508C42.9867 14.7938 43.7169 15.0154 44.5538 15.0154C45.4072 15.0154 46.1374 14.7774 46.7446 14.3015C47.3682 13.8256 48 13.2759 48.64 12.6523C49.28 12.0451 50.0431 11.5036 50.9292 11.0277C51.8318 10.5682 52.9887 10.3385 54.4 10.3385C55.8113 10.3385 56.9682 10.601 57.8708 11.1262C58.7733 11.6513 59.5446 12.2585 60.1846 12.9477C60.8246 13.6369 61.4482 14.2441 62.0554 14.7692C62.679 15.2944 63.4092 15.5569 64.2462 15.5569C65.0995 15.5569 65.8297 15.3108 66.4369 14.8185C67.0605 14.3262 67.6923 13.7518 68.3323 13.0954C68.9723 12.4554 69.7354 11.881 70.6215 11.3723C71.5241 10.88 72.681 10.6338 74.0923 10.6338C75.2903 10.6338 76.4636 10.9538 77.6123 11.5938C78.761 12.2503 79.7621 13.0297 80.6154 13.9323C81.4687 14.8349 82.0595 15.6882 82.3877 16.4923L78.8677 18.2154C78.3097 17.0995 77.5959 16.1559 76.7262 15.3846C75.8728 14.6133 74.9949 14.2277 74.0923 14.2277C73.2554 14.2277 72.5251 14.4738 71.9015 14.9662C71.2944 15.4585 70.6708 16.0246 70.0308 16.6646C69.3908 17.321 68.6195 17.8954 67.7169 18.3877C66.8144 18.8964 65.6574 19.1508 64.2462 19.1508C62.8349 19.1508 61.678 18.8964 60.7754 18.3877C59.8892 17.8954 59.1262 17.321 58.4862 16.6646C57.8462 16.0246 57.2144 15.4585 56.5908 14.9661C55.9836 14.4738 55.2533 14.2277 54.4 14.2277C53.5631 14.2277 52.8328 14.4738 52.2092 14.9661C51.6021 15.4585 50.9785 16.0246 50.3385 16.6646C49.6985 17.321 48.9272 17.8954 48.0246 18.3877C47.1221 18.8964 45.9651 19.1508 44.5538 19.1508C43.159 19.1508 42.0103 18.8964 41.1077 18.3877C40.2215 17.8954 39.4503 17.321 38.7939 16.6646C38.1539 16.0246 37.5221 15.4585 36.8985 14.9661C36.2749 14.4738 35.5446 14.2277 34.7077 14.2277C33.8708 14.2277 33.1405 14.4738 32.5169 14.9661C31.9098 15.4585 31.2862 16.0246 30.6462 16.6646C30.0062 17.321 29.2349 17.8954 28.3323 18.3877C27.4297 18.8964 26.2728 19.1508 24.8615 19.1508C23.4503 19.1508 22.3015 18.8964 21.4154 18.3877C20.5128 17.8954 19.7415 17.321 19.1015 16.6646C18.4615 16.0246 17.838 15.4585 17.2308 14.9661C16.6072 14.4738 15.8687 14.2277 15.0154 14.2277Z" fill="#202020"/>
<path d="M204.76 15.7538C205.449 15.7538 206.04 15.6062 206.532 15.3108C207.041 14.999 207.533 14.6215 208.009 14.1785C208.502 13.7354 209.043 13.3005 209.634 12.8738C210.241 12.4472 210.979 12.119 211.849 11.8892C211.636 11.6923 211.406 11.4708 211.16 11.2246C210.93 10.9621 210.659 10.6667 210.348 10.3385L203.332 2.60923L206.385 0L219.775 14.9908L206.385 29.9815L203.332 27.3723L210.348 19.6431C211.021 18.921 211.562 18.3631 211.972 17.9692C212.383 17.5754 212.891 17.1897 213.498 16.8123V15.8769C212.711 16.0738 212.046 16.3774 211.505 16.7877C210.963 17.1979 210.413 17.6246 209.855 18.0677C209.297 18.4944 208.625 18.8636 207.837 19.1754C207.049 19.4872 206.024 19.6431 204.76 19.6431C203.349 19.6431 202.192 19.3805 201.289 18.8554C200.387 18.3303 199.615 17.7231 198.975 17.0338C198.335 16.3446 197.704 15.7374 197.08 15.2123C196.473 14.6872 195.751 14.4246 194.914 14.4246C194.061 14.4246 193.322 14.6708 192.698 15.1631C192.091 15.6554 191.468 16.2297 190.828 16.8862C190.188 17.5262 189.425 18.1005 188.538 18.6092C187.636 19.1015 186.479 19.3477 185.068 19.3477C183.673 19.3477 182.524 19.1262 181.622 18.6831C180.719 18.24 179.948 17.7313 179.308 17.1569C178.651 16.5826 178.019 16.0738 177.412 15.6308C176.789 15.1877 176.058 14.9662 175.222 14.9662C174.368 14.9662 173.638 15.2041 173.031 15.68C172.407 16.1559 171.775 16.7056 171.135 17.3292C170.495 17.9364 169.732 18.478 168.846 18.9538C167.944 19.4133 166.787 19.6431 165.375 19.6431C163.964 19.6431 162.807 19.3805 161.905 18.8554C161.002 18.3303 160.231 17.7231 159.591 17.0338C158.951 16.3446 158.327 15.7374 157.72 15.2123C157.096 14.6872 156.366 14.4246 155.529 14.4246C154.676 14.4246 153.946 14.6708 153.338 15.1631C152.715 15.6554 152.083 16.2297 151.443 16.8862C150.803 17.5262 150.04 18.1005 149.154 18.6092C148.251 19.1015 147.094 19.3477 145.683 19.3477C144.485 19.3477 143.312 19.0277 142.163 18.3877C141.014 17.7313 140.013 16.9518 139.16 16.0492C138.307 15.1467 137.716 14.2933 137.388 13.4892L140.908 11.7662C141.466 12.8821 142.179 13.8256 143.049 14.5969C143.903 15.3682 144.781 15.7538 145.683 15.7538C146.52 15.7538 147.25 15.5077 147.874 15.0154C148.481 14.5231 149.105 13.9569 149.745 13.3169C150.385 12.6605 151.156 12.0862 152.058 11.5938C152.961 11.0851 154.118 10.8308 155.529 10.8308C156.941 10.8308 158.097 11.0851 159 11.5938C159.886 12.0862 160.649 12.6605 161.289 13.3169C161.929 13.9569 162.561 14.5231 163.185 15.0154C163.792 15.5077 164.522 15.7538 165.375 15.7538C166.212 15.7538 166.943 15.5077 167.566 15.0154C168.173 14.5231 168.797 13.9569 169.437 13.3169C170.077 12.6605 170.848 12.0862 171.751 11.5938C172.653 11.0851 173.81 10.8308 175.222 10.8308C176.616 10.8308 177.765 11.0851 178.668 11.5938C179.554 12.0862 180.325 12.6605 180.982 13.3169C181.622 13.9569 182.253 14.5231 182.877 15.0154C183.501 15.5077 184.231 15.7538 185.068 15.7538C185.905 15.7538 186.635 15.5077 187.258 15.0154C187.866 14.5231 188.489 13.9569 189.129 13.3169C189.769 12.6605 190.541 12.0862 191.443 11.5938C192.346 11.0851 193.503 10.8308 194.914 10.8308C196.325 10.8308 197.474 11.0851 198.36 11.5938C199.263 12.0862 200.034 12.6605 200.674 13.3169C201.314 13.9569 201.937 14.5231 202.545 15.0154C203.168 15.5077 203.907 15.7538 204.76 15.7538Z" fill="#202020"/>
</svg>
