<svg width="10002" height="324" viewBox="0 0 10002 324" fill="none" xmlns="http://www.w3.org/2000/svg">
<g clip-path="url(#clip0_65_155)">
<rect width="10002" height="324" fill="#FFF4D7"/>
<path d="M75.891 216.171L120.719 138.686L78.1782 64.4C76.8059 61.6571 77.9495 60.2857 80.694 60.2857H115.458C117.288 60.2857 118.889 61.2 119.804 62.5714L142.446 101.886L165.089 62.5714C165.775 61.2 167.376 60.2857 169.206 60.2857H203.97C206.715 60.2857 207.858 61.6571 206.486 64.4L163.945 138.686L208.773 216.171C210.145 218.914 209.002 220.286 206.257 220.286H171.036C169.206 220.286 167.605 219.371 166.69 218L142.446 175.029L117.974 218C117.059 219.371 115.458 220.286 113.629 220.286H78.4069C75.6623 220.286 74.5188 218.914 75.891 216.171ZM212.661 164.286C212.661 131.371 233.932 105.543 264.808 105.543C280.589 105.543 291.339 111.257 298.429 121.086L298.886 111.943C298.886 109.886 300.487 108.286 302.545 108.286H330.906C332.964 108.286 334.565 109.886 334.565 111.943V182.114C334.565 188.057 337.996 191.257 341.884 191.257C344.629 191.257 345.772 190.571 348.974 190.8C351.261 191.029 353.091 192.171 353.091 194.457V215.486C353.091 221.429 341.427 223.029 333.65 223.029C321.071 223.029 306.205 219.6 302.774 201.543H302.088C294.54 217.314 279.445 223.029 264.808 223.029C233.932 223.029 212.661 197.429 212.661 164.286ZM273.499 188.286C286.993 188.286 296.37 178.686 296.37 164.057C296.37 149.429 286.993 140.286 273.499 140.286C260.005 140.286 250.17 149.886 250.17 164.286C250.17 178.686 260.234 188.286 273.499 188.286ZM264.808 63.0286C265.723 60.9714 267.095 60.2857 269.382 60.2857H292.025C294.541 60.2857 295.455 62.3428 294.541 64.4L284.477 90.2286C283.562 92.2857 282.19 92.9714 279.903 92.9714H257.032C254.516 92.9714 254.058 90.9143 254.973 88.8571L264.808 63.0286ZM361.782 260.057V165.2C361.782 127.486 388.084 105.543 423.763 105.543C462.416 105.543 483.686 131.371 483.686 164.286C483.686 197.2 461.73 223.029 430.167 223.029C416.444 223.029 406.838 218.457 400.435 212.514V260.057C400.435 262.114 398.834 263.714 396.775 263.714H365.441C363.383 263.714 361.782 262.114 361.782 260.057ZM423.306 188.286C436.342 188.286 446.177 178.914 446.177 164.286C446.177 149.657 436.342 140.286 423.077 140.286C409.812 140.286 399.977 149.429 399.977 164.057C399.977 178.686 410.04 188.286 423.306 188.286ZM585.463 260.057V161.543C585.463 147.6 579.745 140.743 568.539 140.743C557.332 140.743 551.385 147.6 551.385 161.543V216.629C551.385 218.686 549.784 220.286 547.726 220.286H516.849C514.791 220.286 512.961 218.686 512.961 216.629V146.914C512.961 140.971 509.759 137.314 506.1 137.314C503.127 137.314 501.983 138 498.781 137.771C496.494 137.771 494.893 136.4 494.893 134.114V113.086C494.893 107.143 505.642 105.543 513.876 105.543C528.971 105.543 544.066 110.114 549.327 126.343H550.928C556.417 112.857 567.624 105.543 583.405 105.543C607.191 105.543 623.887 122.914 623.887 151.943V260.057C623.887 262.114 622.286 263.714 620.228 263.714H589.123C587.064 263.714 585.463 262.114 585.463 260.057ZM721.547 218.457L695.017 184.4L686.326 194V216.629C686.326 218.686 684.725 220.286 682.666 220.286H651.333C649.274 220.286 647.673 218.686 647.673 216.629V111.943C647.673 109.886 649.274 108.286 651.333 108.286H682.666C684.725 108.286 686.326 109.886 686.326 111.943V146L714.915 110.114C715.83 108.743 717.659 108.286 719.26 108.286H756.312C759.285 108.286 760.2 110.114 758.37 112.4L718.803 159.257L764.774 216.171C766.604 218.686 765.46 220.286 762.487 220.286H725.664C724.063 220.286 722.691 219.829 721.547 218.457ZM765.232 164.286C765.232 131.371 786.502 105.543 817.378 105.543C833.159 105.543 843.909 111.257 850.999 121.086L851.456 111.943C851.456 109.886 853.057 108.286 855.116 108.286H883.476C885.534 108.286 887.135 109.886 887.135 111.943V182.114C887.135 188.057 890.566 191.257 894.454 191.257C897.199 191.257 898.342 190.571 901.544 190.8C903.831 191.029 905.661 192.171 905.661 194.457V215.486C905.661 221.429 893.997 223.029 886.221 223.029C873.641 223.029 858.775 219.6 855.344 201.543H854.658C847.111 217.314 832.016 223.029 817.378 223.029C786.502 223.029 765.232 197.429 765.232 164.286ZM826.069 188.286C839.563 188.286 848.94 178.686 848.94 164.057C848.94 149.429 839.563 140.286 826.069 140.286C812.575 140.286 802.74 149.886 802.74 164.286C802.74 178.686 812.804 188.286 826.069 188.286Z" fill="#202020"/>
<path d="M1060.33 150.686L1059.02 146.785C1056.85 140.27 1051.09 136.057 1044.34 136.057C1042.85 136.057 1040.82 136.057 1038.32 137.025L1031.3 139.547V129.2C1031.3 119.928 1024.57 113.2 1015.29 113.2H1011.63C1002.35 113.2 995.623 119.928 995.623 129.2V139.592L988.349 137.017C985.849 136.057 983.585 136.057 982.357 136.057C975.61 136.057 969.847 140.27 967.674 146.785L966.591 150.03C965.661 152.484 965.661 154.495 965.661 155.714C965.661 162.777 969.892 168.491 976.7 170.648L985.018 173.383L978.042 181.901C975.481 184.926 974.123 188.514 974.123 192.286C974.123 197.223 976.35 201.558 980.398 204.537L983.097 206.815C986.139 209.421 989.76 210.8 993.564 210.8C998.527 210.8 1003.09 208.385 1006.14 204.171L1013.46 194.907L1020.78 204.171C1023.83 208.385 1028.4 210.8 1033.36 210.8C1037.16 210.8 1040.79 209.421 1043.79 206.853L1046.66 204.43C1050.62 201.284 1052.8 196.979 1052.8 192.286C1052.8 188.499 1051.44 184.903 1048.86 181.878L1041.77 173.352L1050.07 170.617C1056.73 168.4 1061.03 162.549 1061.03 155.714C1061.03 154.137 1060.75 152.781 1060.53 151.691L1060.33 150.686Z" fill="#202020"/>
<path d="M1310.4 125.863V103.966C1310.4 102.945 1309.57 102.114 1308.55 102.114H1273.11C1272.54 102.114 1272 102.381 1271.65 102.838C1268.69 106.64 1266.17 109.909 1264.09 112.629C1261.88 115.524 1260.24 117.848 1259.18 119.6C1258.11 121.352 1257.58 122.762 1257.58 123.829C1257.58 124.438 1257.73 125.124 1258.03 125.886C1258.34 126.648 1259.18 127.943 1260.55 129.771C1261.92 131.6 1264.13 134.571 1267.18 138.686V199.943C1267.18 203.448 1265.96 206.076 1263.52 207.829C1261.08 209.581 1257.19 210.457 1251.86 210.457C1246.52 210.457 1242.75 209.581 1240.08 207.829C1237.41 206.076 1236.08 203.448 1236.08 199.943V171.6C1236.08 163.524 1234.25 156.857 1230.59 151.6C1226.93 146.343 1220.94 142.419 1212.63 139.829C1204.32 137.238 1193 135.943 1178.67 135.943C1177.11 135.943 1175.56 135.966 1174.03 136.004L1167.01 127.943V127.714H1202.89C1203.91 127.714 1204.74 126.884 1204.74 125.863V103.966C1204.74 102.945 1203.91 102.114 1202.89 102.114H1142.07C1141.5 102.114 1140.96 102.381 1140.6 102.83C1137.65 106.617 1135.12 109.733 1133.04 112.171C1130.83 114.762 1129.19 116.895 1128.12 118.571C1127.06 120.248 1126.52 121.771 1126.52 123.143C1126.52 124.057 1126.79 125.086 1127.32 126.229C1127.86 127.371 1129.08 129.238 1130.98 131.829C1132.74 134.213 1135.37 137.634 1138.87 142.091C1135.06 143.859 1131.75 146.122 1128.92 148.857C1123.66 153.962 1121.03 161.543 1121.03 171.6V220.057C1121.03 225.848 1122.6 229.962 1125.72 232.4C1128.85 234.838 1134.6 236.057 1142.99 236.057H1156.94C1167.62 236.057 1175.93 233.505 1181.87 228.4C1187.82 223.295 1190.79 216.552 1190.79 208.171C1190.79 201.619 1189.69 196.362 1187.48 192.4C1185.26 188.438 1182.06 185.543 1177.87 183.714C1173.68 181.886 1168.53 180.971 1162.43 180.971V171.6C1162.43 168.095 1163.8 165.429 1166.55 163.6C1169.29 161.771 1173.33 160.857 1178.67 160.857C1184.01 160.857 1188.05 161.771 1190.79 163.6C1193.54 165.429 1194.91 168.095 1194.91 171.6V199.943C1194.91 224.019 1213.89 236.057 1251.86 236.057C1270.77 236.057 1284.95 233.048 1294.4 227.029C1303.85 221.009 1308.58 211.981 1308.58 199.943V142.343L1294.4 127.943V127.714H1308.56C1309.58 127.714 1310.41 126.884 1310.41 125.863H1310.4ZM1166.88 200.971C1168.18 202.571 1168.83 204.895 1168.83 207.943C1168.83 209.771 1168.48 211.448 1167.8 212.971C1167.11 214.495 1166.31 215.676 1165.4 216.514C1164.48 217.352 1163.49 217.771 1162.42 217.771V198.571C1164.1 198.571 1165.59 199.371 1166.88 200.971ZM1221.66 293.124V246.655C1221.66 245.093 1222.93 243.836 1224.48 243.836H1250.62C1252.19 243.836 1253.44 245.101 1253.44 246.655V266.922L1259.9 262.686C1260.84 262.069 1262.06 262.069 1263 262.686L1269.46 266.922V246.655C1269.46 245.093 1270.73 243.836 1272.28 243.836H1298.42C1299.99 243.836 1301.24 245.101 1301.24 246.655V293.124C1301.24 294.686 1299.98 295.943 1298.42 295.943H1273.78C1273.2 295.943 1272.63 295.768 1272.16 295.432L1261.46 287.943L1250.52 295.448C1250.04 295.768 1249.49 295.943 1248.92 295.943H1224.48C1222.92 295.943 1221.66 294.678 1221.66 293.124ZM1539.57 124.469V105.368C1539.57 103.57 1538.12 102.114 1536.32 102.114H1502.96C1501.96 102.114 1501.01 102.579 1500.39 103.371C1497.61 106.945 1495.23 110.03 1493.25 112.629C1491.04 115.524 1489.4 117.848 1488.33 119.6C1487.26 121.352 1486.73 122.762 1486.73 123.829C1486.73 124.438 1486.88 125.124 1487.19 125.886C1487.49 126.648 1488.33 127.943 1489.7 129.771C1491.08 131.6 1493.29 134.571 1496.34 138.686V199.943C1496.34 203.448 1495.12 206.076 1492.68 207.829C1490.24 209.581 1486.35 210.457 1481.01 210.457C1475.68 210.457 1471.9 209.581 1469.23 207.829C1466.57 206.076 1465.23 203.448 1465.23 199.943V171.6C1465.23 163.524 1463.4 156.857 1459.74 151.6C1456.08 146.343 1450.1 142.419 1441.79 139.829C1433.48 137.238 1422.16 135.943 1407.83 135.943C1406.26 135.943 1404.71 135.966 1403.19 136.004L1396.16 127.943V127.714H1430.64C1432.44 127.714 1433.9 126.259 1433.9 124.461V105.36C1433.9 103.562 1432.44 102.107 1430.64 102.107H1371.9C1370.9 102.107 1369.96 102.564 1369.34 103.349C1366.56 106.899 1364.18 109.84 1362.19 112.164C1359.98 114.754 1358.34 116.888 1357.27 118.564C1356.2 120.24 1355.67 121.764 1355.67 123.135C1355.67 124.05 1355.94 125.078 1356.47 126.221C1357.01 127.364 1358.22 129.23 1360.13 131.821C1361.88 134.206 1364.51 137.627 1368.02 142.084C1364.21 143.851 1360.89 146.114 1358.07 148.85C1352.81 153.954 1350.18 161.535 1350.18 171.592V220.05C1350.18 225.84 1351.74 229.954 1354.87 232.392C1358 234.83 1363.75 236.049 1372.14 236.049H1386.09C1396.76 236.049 1405.07 233.497 1411.02 228.392C1416.97 223.288 1419.94 216.545 1419.94 208.164C1419.94 201.611 1418.83 196.354 1416.62 192.392C1414.41 188.43 1411.21 185.535 1407.02 183.707C1402.82 181.878 1397.68 180.964 1391.58 180.964V171.592C1391.58 168.088 1392.95 165.421 1395.7 163.592C1398.44 161.764 1402.48 160.85 1407.82 160.85C1413.15 160.85 1417.19 161.764 1419.94 163.592C1422.68 165.421 1424.06 168.088 1424.06 171.592V199.935C1424.06 224.011 1443.04 236.049 1481.01 236.049C1499.91 236.049 1514.09 233.04 1523.55 227.021C1533 221.002 1537.73 211.973 1537.73 199.935V143.669C1537.73 142.815 1537.39 142 1536.79 141.39L1523.55 127.935V127.707H1536.3C1538.1 127.707 1539.56 126.251 1539.56 124.453L1539.57 124.469ZM1396.05 200.979C1397.35 202.579 1398 204.903 1398 207.95C1398 209.779 1397.65 211.455 1396.97 212.979C1396.28 214.503 1395.48 215.684 1394.57 216.522C1393.65 217.36 1392.66 217.779 1391.59 217.779V198.579C1393.27 198.579 1394.76 199.379 1396.05 200.979ZM1479.65 290.122V277.665H1461.92C1460.98 277.665 1460.21 276.895 1460.21 275.95V257.436C1460.21 256.491 1460.98 255.722 1461.92 255.722H1479.65V243.265C1479.65 242.32 1480.42 241.55 1481.36 241.55H1501.03C1501.98 241.55 1502.75 242.32 1502.75 243.265V255.722H1520.02C1520.96 255.722 1521.73 256.491 1521.73 257.436V275.95C1521.73 276.895 1520.96 277.665 1520.02 277.665H1502.75V290.122C1502.75 291.067 1501.98 291.836 1501.03 291.836H1481.36C1480.42 291.836 1479.65 291.067 1479.65 290.122ZM1579.37 105.177V124.674C1579.37 126.358 1580.73 127.722 1582.42 127.722H1697.3C1698.98 127.722 1700.35 126.358 1700.35 124.674V105.177C1700.35 103.493 1698.98 102.13 1697.3 102.13H1582.42C1580.73 102.13 1579.37 103.493 1579.37 105.177ZM1639.75 139.158C1599.49 139.158 1579.37 151.196 1579.37 175.272V220.072C1579.37 225.863 1580.93 229.977 1584.06 232.415C1587.18 234.853 1592.94 236.072 1601.32 236.072H1615.28C1625.95 236.072 1634.26 233.52 1640.2 228.415C1646.15 223.31 1649.12 216.568 1649.12 208.187C1649.12 201.634 1648.02 196.377 1645.81 192.415C1643.6 188.453 1640.4 185.558 1636.2 183.73C1632.01 181.901 1626.86 180.987 1620.76 180.987V175.272C1620.76 171.768 1622.37 169.101 1625.57 167.272C1628.77 165.444 1633.5 164.53 1639.75 164.53C1646 164.53 1650.8 165.444 1654.16 167.272C1657.51 169.101 1659.19 171.768 1659.19 175.272V232.27C1659.19 234.373 1660.89 236.072 1662.99 236.072H1696.78C1698.89 236.072 1700.59 234.373 1700.59 232.27V175.272C1700.59 151.196 1680.31 139.158 1639.75 139.158ZM1625.22 200.987C1626.52 202.587 1627.17 204.91 1627.17 207.958C1627.17 209.787 1626.83 211.463 1626.14 212.987C1625.45 214.51 1624.65 215.691 1623.74 216.53C1622.82 217.368 1621.83 217.787 1620.76 217.787V198.587C1622.44 198.587 1623.93 199.387 1625.22 200.987ZM1680 30.4952V42.7467C1678.44 41.8019 1676.88 40.9105 1675.31 40.0724C1670.05 37.2533 1664.64 35.0438 1659.07 33.4438C1653.51 31.8438 1647.75 31.0438 1641.81 31.0438C1634.49 31.0438 1627.78 32.2628 1621.68 34.7009C1615.58 37.139 1610.7 40.72 1607.04 45.4438C1603.38 50.1676 1601.55 56.0343 1601.55 63.0438C1601.55 68.6819 1603.23 72.8724 1606.58 75.6152C1609.94 78.3581 1615.12 79.7295 1622.14 79.7295H1703.88C1705.22 79.7295 1706.3 78.64 1706.3 77.3066V30.48C1706.3 29.139 1705.21 28.0571 1703.88 28.0571H1682.43C1681.09 28.0571 1680.01 29.1467 1680.01 30.48L1680 30.4952ZM1629.46 61.6724C1629.46 59.539 1630.48 57.7866 1632.54 56.4152C1634.6 55.0438 1637.99 54.3581 1642.72 54.3581C1645.01 54.3581 1647.33 54.5486 1649.7 54.9295C1652.06 55.3105 1654.31 55.8819 1656.44 56.6438C1658.58 57.4057 1660.48 58.2057 1662.16 59.0438C1663.84 59.8819 1665.13 60.7581 1666.05 61.6724H1629.46Z" fill="#202020"/>
<path d="M1860.97 150.686L1859.66 146.785C1857.49 140.27 1851.73 136.057 1844.98 136.057C1843.49 136.057 1841.47 136.057 1838.97 137.025L1831.94 139.547V129.2C1831.94 119.928 1825.21 113.2 1815.93 113.2H1812.27C1803 113.2 1796.26 119.928 1796.26 129.2V139.592L1788.99 137.017C1786.49 136.057 1784.23 136.057 1783 136.057C1776.25 136.057 1770.49 140.27 1768.32 146.785L1767.23 150.03C1766.3 152.484 1766.3 154.495 1766.3 155.714C1766.3 162.777 1770.53 168.491 1777.34 170.648L1785.66 173.383L1778.68 181.901C1776.12 184.926 1774.77 188.514 1774.77 192.286C1774.77 197.223 1776.99 201.558 1781.04 204.537L1783.74 206.815C1786.78 209.421 1790.4 210.8 1794.21 210.8C1799.17 210.8 1803.74 208.385 1806.79 204.171L1814.1 194.907L1821.42 204.171C1824.47 208.385 1829.04 210.8 1834 210.8C1837.81 210.8 1841.43 209.421 1844.43 206.853L1847.3 204.43C1851.26 201.284 1853.44 196.979 1853.44 192.286C1853.44 188.499 1852.08 184.903 1849.5 181.878L1842.41 173.352L1850.71 170.617C1857.38 168.4 1861.68 162.549 1861.68 155.714C1861.68 154.137 1861.39 152.781 1861.17 151.691L1860.97 150.686Z" fill="#202020"/>
<path d="M2038.78 107.943V230.914C2036.79 231.524 2034.2 232.019 2031 232.4C2027.8 232.781 2024.6 232.971 2021.39 232.971C2015.14 232.971 2010.3 231.752 2006.87 229.314C2003.44 226.876 2001.73 222.762 2001.73 216.971V163.257H1971.08C1968.03 163.257 1965.78 164.324 1964.33 166.457C1962.88 168.59 1962.16 171.638 1962.16 175.6V188.171C1960.63 189.238 1958.69 190.229 1956.33 191.143C1953.96 192.057 1950.72 192.514 1946.61 192.514C1940.05 192.514 1934.26 190.305 1929.22 185.886C1924.19 181.467 1921.68 174.686 1921.68 165.543C1921.68 154.876 1924.69 146.838 1930.71 141.429C1936.73 136.019 1946.45 133.314 1959.87 133.314H2001.73V94.2286C2003.71 93.4667 2006.26 92.9333 2009.39 92.6286C2012.51 92.3238 2015.68 92.1714 2018.88 92.1714C2025.13 92.1714 2030.01 93.3524 2033.52 95.7143C2037.02 98.0762 2038.78 102.152 2038.78 107.943ZM2181.95 95.7143C2178.44 93.3524 2173.57 92.1714 2167.31 92.1714C2164.11 92.1714 2160.94 92.3238 2157.82 92.6286C2154.7 92.9333 2152.13 93.4667 2150.16 94.2286V148.4H2117.23V127.829C2117.23 115.943 2114.44 107.105 2108.88 101.314C2103.31 95.5238 2095.19 92.6286 2084.52 92.6286C2077.05 92.6286 2071.17 93.9619 2066.91 96.6286C2062.64 99.2952 2060.5 104.21 2060.5 111.371C2060.5 113.352 2060.81 115.371 2061.42 117.429C2062.02 119.486 2062.64 121.2 2063.25 122.571H2070.8C2074.91 122.571 2077.51 123.752 2078.57 126.114C2079.64 128.476 2080.17 131.41 2080.17 134.914V155.029C2080.17 162.952 2076.59 166.914 2069.42 166.914H2063.71C2062.94 168.895 2062.22 171.105 2061.53 173.543C2060.85 175.981 2060.5 178.8 2060.5 182C2060.5 188.095 2062.79 193.314 2067.37 197.657C2071.94 202 2078.57 204.171 2087.26 204.171C2095.5 204.171 2102.36 201.886 2107.85 197.314C2113.25 192.819 2115.98 186.267 2116.07 177.657H2150.16V216.971C2150.16 222.762 2151.88 226.876 2155.31 229.314C2158.74 231.752 2163.57 232.971 2169.83 232.971C2173.03 232.971 2176.23 232.781 2179.44 232.4C2182.64 232.019 2185.23 231.524 2187.21 230.914V107.943C2187.21 102.152 2185.46 98.0762 2181.95 95.7143ZM2350.73 95.7143C2347.23 93.3524 2342.35 92.1714 2336.1 92.1714C2332.89 92.1714 2329.73 92.3238 2326.6 92.6286C2323.48 92.9333 2320.92 93.4667 2318.94 94.2286V143.95C2318.35 144.118 2317.74 144.263 2317.11 144.4C2313.91 145.086 2310.33 145.429 2306.36 145.429C2302.4 145.429 2298.4 145.154 2294.82 144.613C2295.05 142.533 2295.16 140.37 2295.16 138.114C2295.16 128.057 2293.1 119.448 2288.98 112.286C2284.86 105.124 2279.07 99.6381 2271.6 95.8286C2264.13 92.0191 2255.21 90.1143 2244.84 90.1143C2239.2 90.1143 2234.09 90.7619 2229.52 92.0571C2224.94 93.3524 2221.32 95.4476 2218.65 98.3429C2215.98 101.238 2214.65 105.124 2214.65 110C2214.65 112.743 2215.53 115.486 2217.28 118.229C2219.03 120.971 2221.13 123.105 2223.57 124.629C2225.55 123.562 2227.95 122.457 2230.77 121.314C2233.59 120.171 2236.76 119.6 2240.27 119.6C2246.52 119.6 2250.9 121.314 2253.42 124.743C2255.93 128.171 2257.19 132.324 2257.19 137.2C2257.19 142.686 2255.44 147.105 2251.93 150.457C2248.42 153.81 2243.47 155.486 2237.06 155.486H2211.68C2210.91 157.01 2210.15 158.952 2209.39 161.314C2208.63 163.676 2208.25 166.381 2208.25 169.429C2208.25 174.61 2209.85 178.457 2213.05 180.971C2216.25 183.486 2219.83 184.743 2223.8 184.743H2227.27C2229.97 193.977 2233.47 202.282 2237.75 209.657C2242.17 217.276 2247.43 223.295 2253.53 227.714C2259.63 232.133 2266.57 234.343 2274.34 234.343C2281.51 234.343 2286.77 232.438 2290.12 228.629C2293.48 224.819 2295.16 220.324 2295.16 215.143C2295.16 213.771 2295.04 212.21 2294.81 210.457C2294.58 208.705 2294.24 207.143 2293.78 205.771C2284.79 204.095 2277.16 200.933 2270.91 196.286C2265.18 192.019 2260.53 187.402 2256.98 182.434C2263.22 181.17 2268.89 179.158 2274 176.4C2277.18 174.686 2280.02 172.651 2282.54 170.297C2284.48 171.09 2286.7 171.836 2289.21 172.514C2294.55 173.962 2299.96 174.762 2305.45 174.914C2309.87 174.914 2313.57 174.724 2316.54 174.343C2317.37 174.236 2318.17 174.107 2318.94 173.939V216.971C2318.94 222.762 2320.66 226.876 2324.09 229.314C2327.52 231.752 2332.36 232.971 2338.61 232.971C2341.81 232.971 2345.02 232.781 2348.22 232.4C2351.42 232.019 2354.01 231.524 2355.99 230.914V107.943C2355.99 102.152 2354.24 98.0762 2350.73 95.7143ZM2325 246.686C2321.57 250.19 2319.02 254.686 2317.34 260.171L2348.68 293.543C2352.03 297.2 2355.19 299.524 2358.17 300.514C2361.14 301.505 2363.85 302 2366.29 302C2371.01 302 2374.9 300.514 2377.95 297.543C2381 294.571 2383.29 290.724 2384.81 286L2354.39 250.114C2351.5 246.61 2348.71 244.286 2346.05 243.143C2343.38 242 2340.52 241.429 2337.47 241.429C2332.59 241.429 2328.43 243.181 2325 246.686ZM2492.54 95.7143C2489.03 93.3524 2484.15 92.1714 2477.9 92.1714C2474.7 92.1714 2471.53 92.3238 2468.41 92.6286C2465.28 92.9333 2462.73 93.4667 2460.74 94.2286V122.8H2441.53C2422.47 122.8 2407.26 127.371 2395.9 136.514C2384.55 145.657 2378.87 158.914 2378.87 176.286C2378.87 182.838 2379.63 188.933 2381.15 194.571C2382.68 200.21 2384.7 205.276 2387.21 209.771C2389.73 214.267 2392.51 218.19 2395.56 221.543C2399.53 225.657 2403.57 228.781 2407.68 230.914C2411.8 233.048 2416.07 234.114 2420.49 234.114C2425.83 234.114 2430.25 232.362 2433.76 228.857C2437.26 225.352 2439.17 220.705 2439.47 214.914C2435.66 212.171 2432.04 208.895 2428.61 205.086C2425.18 201.276 2422.4 197.086 2420.26 192.514C2418.13 187.943 2417.06 183.067 2417.06 177.886C2417.06 169.505 2419.5 163.181 2424.38 158.914C2429.26 154.648 2435.74 152.514 2443.82 152.514H2460.74V216.971C2460.74 222.762 2462.46 226.876 2465.89 229.314C2469.32 231.752 2474.16 232.971 2480.41 232.971C2483.62 232.971 2486.82 232.781 2490.02 232.4C2493.22 232.019 2495.81 231.524 2497.8 230.914V107.943C2497.8 102.152 2496.04 98.0762 2492.54 95.7143ZM2418.89 28.6286C2415.23 33.0476 2413.02 38.8381 2412.26 46L2445.42 67.9429C2452.28 72.5143 2457.7 75.9429 2461.66 78.2286C2465.62 80.5143 2468.79 82.0762 2471.15 82.9143C2473.51 83.7524 2475.53 84.1714 2477.21 84.1714C2482.4 84.1714 2486.36 82.381 2489.1 78.8C2491.85 75.2191 2493.45 70.9143 2493.91 65.8857L2466.46 39.8286C2461.28 34.8 2456.82 31.0286 2453.08 28.5143C2449.35 26 2446.03 24.2857 2443.13 23.3714C2440.24 22.4571 2437.26 22 2434.21 22C2427.66 22 2422.55 24.2095 2418.89 28.6286Z" fill="#202020"/>
<path d="M2652.46 150.686L2651.16 146.785C2648.98 140.27 2643.22 136.057 2636.47 136.057C2634.99 136.057 2632.96 136.057 2630.46 137.025L2623.44 139.547V129.2C2623.44 119.928 2616.7 113.2 2607.43 113.2H2603.77C2594.49 113.2 2587.76 119.928 2587.76 129.2V139.592L2580.48 137.017C2577.98 136.057 2575.72 136.057 2574.49 136.057C2567.74 136.057 2561.98 140.27 2559.81 146.785L2558.73 150.03C2557.8 152.484 2557.8 154.495 2557.8 155.714C2557.8 162.777 2562.03 168.491 2568.84 170.648L2577.15 173.383L2570.18 181.901C2567.62 184.926 2566.26 188.514 2566.26 192.286C2566.26 197.223 2568.48 201.558 2572.53 204.537L2575.23 206.815C2578.27 209.421 2581.89 210.8 2585.7 210.8C2590.66 210.8 2595.23 208.385 2598.28 204.171L2605.6 194.907L2612.92 204.171C2615.97 208.385 2620.53 210.8 2625.49 210.8C2629.3 210.8 2632.92 209.421 2635.92 206.853L2638.79 204.43C2642.76 201.284 2644.94 196.979 2644.94 192.286C2644.94 188.499 2643.57 184.903 2640.99 181.878L2633.9 173.352L2642.21 170.617C2648.87 168.4 2653.17 162.549 2653.17 155.714C2653.17 154.137 2652.89 152.781 2652.67 151.691L2652.46 150.686Z" fill="#202020"/>
<path d="M3280.61 123.943H2946.69C2943.25 123.943 2941.42 125.771 2941.42 129.2V187.257H2910.09V184.057C2910.09 163.714 2905.75 145.2 2897.74 129.2C2896.14 125.771 2892.71 123.943 2888.59 123.943H2715.46C2714.08 123.943 2713.17 124.857 2713.17 126.229V154.343C2713.17 155.714 2714.08 156.629 2715.46 156.629H2762.57V171.486C2741.07 178.571 2727.35 196.4 2727.35 217.429C2727.35 241.886 2743.82 261.314 2771.72 261.543C2774.46 261.543 2775.84 259.714 2775.84 257.429V231.829C2775.84 229.771 2774.24 228.857 2771.95 228.4C2767.37 226.571 2764.4 220.857 2764.4 215.143C2764.4 206.686 2771.03 199.829 2782.7 199.829C2794.36 199.829 2800.77 206.686 2800.77 215.143C2800.77 220.857 2798.02 226.571 2793.22 228.4C2790.93 228.857 2789.33 229.771 2789.33 231.829V257.429C2789.33 259.714 2790.7 261.543 2793.45 261.543C2821.35 261.314 2837.83 241.886 2837.83 217.429C2837.83 196.4 2823.87 178.571 2802.6 171.486V156.629H2866.18C2868.92 161.886 2873.73 168.743 2873.73 186.8C2873.73 189.771 2873.73 194.114 2872.58 197.771C2866.18 205.086 2857.94 215.371 2857.94 227.943C2857.94 240.514 2866.18 248.514 2878.07 248.514C2892.25 248.514 2900.71 236.171 2905.29 220.857H2941.42V255.143C2941.42 257.2 2943.03 258.8 2945.08 258.8H2977.56C2979.63 258.8 2981.22 257.2 2981.22 255.143V156.629H3012.1C3014.84 161.886 3019.64 168.743 3019.64 186.8C3019.64 189.771 3019.64 194.114 3018.5 197.771C3012.1 205.086 3003.86 215.371 3003.86 227.943C3003.86 240.514 3012.1 248.514 3023.99 248.514C3038.17 248.514 3046.63 236.171 3051.21 220.857H3087.34V255.143C3087.34 257.2 3088.94 258.8 3091 258.8H3123.48C3125.54 258.8 3127.14 257.2 3127.14 255.143V156.629H3224.79C3221.14 167.829 3210.85 170.343 3200.09 170.343C3191.63 170.343 3186.83 168.514 3183.4 168.514C3172.87 168.514 3167.39 175.829 3167.39 184.057C3167.39 192.286 3172.87 199.829 3183.4 199.829C3187.28 199.829 3191.86 198 3201.46 198C3218.85 198 3228.69 204.171 3228.69 214C3228.69 223.829 3218.39 229.771 3201.92 229.771C3185.45 229.771 3175.39 224.743 3165.78 217.657C3163.04 215.829 3160.75 216.743 3158.47 219.257L3148.4 232.743C3146.12 235.943 3145.89 238.229 3147.49 240.057C3160.3 254.914 3180.65 261.543 3204.44 261.543C3245.61 261.543 3266.88 241.2 3266.88 216.743C3266.88 198.686 3255.22 186.114 3241.04 181.314C3252.93 173.086 3258.19 166 3260.02 156.629H3280.61C3281.98 156.629 3282.89 155.714 3282.89 154.343V126.229C3282.89 124.857 3281.98 123.943 3280.61 123.943ZM3087.34 187.257H3056.01V184.057C3056.01 174.457 3055.09 165.314 3053.27 156.629H3087.34V187.257ZM3240.12 111.6V105.886C3240.12 91.7143 3234.86 90.8 3221.36 90.8H3182.48C3179.51 90.8 3177.68 88.9714 3177.68 86.4572V66.8C3177.68 64.2857 3179.51 62.4572 3182.48 62.4572H3229.6C3256.58 62.4572 3271.45 71.8286 3271.45 100.4V111.6C3271.45 114.114 3269.85 116.171 3267.1 116.171H3244.46C3241.95 116.171 3240.12 114.114 3240.12 111.6Z" fill="#202020"/>
<path d="M3437.56 150.686L3436.25 146.785C3434.08 140.27 3428.32 136.057 3421.57 136.057C3420.08 136.057 3418.06 136.057 3415.56 137.025L3408.53 139.547V129.2C3408.53 119.928 3401.8 113.2 3392.52 113.2H3388.86C3379.59 113.2 3372.85 119.928 3372.85 129.2V139.592L3365.58 137.017C3363.08 136.057 3360.82 136.057 3359.59 136.057C3352.84 136.057 3347.08 140.27 3344.91 146.785L3343.82 150.03C3342.89 152.484 3342.89 154.495 3342.89 155.714C3342.89 162.777 3347.12 168.491 3353.93 170.648L3362.25 173.383L3355.27 181.901C3352.71 184.926 3351.36 188.514 3351.36 192.286C3351.36 197.223 3353.58 201.558 3357.63 204.537L3360.33 206.815C3363.37 209.421 3366.99 210.8 3370.8 210.8C3375.76 210.8 3380.33 208.385 3383.38 204.171L3390.69 194.907L3398.01 204.171C3401.06 208.385 3405.63 210.8 3410.59 210.8C3414.4 210.8 3418.02 209.421 3421.02 206.853L3423.89 204.43C3427.85 201.284 3430.03 196.979 3430.03 192.286C3430.03 188.499 3428.67 184.903 3426.09 181.878L3419 173.352L3427.3 170.617C3433.97 168.4 3438.27 162.549 3438.27 155.714C3438.27 154.137 3437.98 152.781 3437.76 151.691L3437.56 150.686Z" fill="#202020"/>
<path d="M3499.1 219.371C3497.95 218 3497.95 216.171 3499.33 214.343L3516.48 194.914C3518.08 193.086 3519.68 192.4 3521.74 194C3532.72 204.057 3540.95 208.629 3552.16 208.629C3562.22 208.629 3569.77 205.429 3569.77 196.286C3569.77 188.514 3564.05 186.229 3555.13 182.343L3535.69 173.429C3518.77 165.657 3501.84 153.543 3501.84 127.714C3501.84 96.8571 3525.17 80.4 3553.53 80.4C3572.74 80.4 3588.52 87.7143 3602.48 101.886C3603.85 103.029 3604.08 105.086 3602.7 106.914L3585.78 127.257C3584.64 129.086 3582.81 129.771 3580.98 128.629C3570.68 120.4 3563.37 116.743 3554.9 116.743C3545.3 116.743 3540.27 121.543 3540.27 128.171C3540.27 136.4 3546.44 138.229 3557.88 143.486L3573.43 150.343C3590.13 158.114 3608.42 168.857 3608.42 196.514C3608.42 231.029 3579.6 244.971 3553.07 244.971C3526.54 244.971 3508.7 232.171 3499.1 219.371ZM3622.6 211.371C3622.6 187.829 3637.47 179.829 3661.94 176.857L3690.76 173.429V168.857C3690.76 160.629 3686.41 157.429 3676.35 157.429C3666.29 157.429 3662.63 160.857 3662.4 166.8C3662.17 167.943 3661.25 168.857 3659.2 168.857H3631.52C3629.46 168.857 3627.63 167.714 3627.86 165.429C3628.55 136.857 3648.9 127.486 3677.95 127.486C3712.49 127.486 3729.64 139.371 3729.64 172.514V204.057C3729.64 207.714 3730.33 212.057 3733.76 213.657C3735.82 214.571 3736.96 216.171 3736.96 218.457V238.571C3736.96 244.057 3731.24 243.6 3723.47 243.6C3711.8 243.6 3699.22 241.543 3693.27 230.343C3682.53 241.771 3670.4 245.2 3658.05 245.2C3637.47 245.2 3622.6 234.229 3622.6 211.371ZM3671.78 215.029C3676.81 215.029 3684.35 214.571 3690.76 208.857V197.657L3666.97 201.086C3662.86 202 3660.57 203.829 3660.57 207.943C3660.57 212.286 3663.08 215.029 3671.78 215.029ZM3757.09 238.571V82.4571C3757.09 80.4 3758.69 78.8 3760.75 78.8H3792.08C3794.14 78.8 3795.74 80.4 3795.74 82.4571V238.571C3795.74 240.629 3794.14 242.229 3792.08 242.229H3760.75C3758.69 242.229 3757.09 240.629 3757.09 238.571ZM3819.52 198.571V133.886C3819.52 131.829 3821.13 130.229 3823.18 130.229H3854.29C3856.35 130.229 3857.95 131.829 3857.95 133.886V188.971C3857.95 202.914 3863.67 209.771 3874.87 209.771C3886.08 209.771 3892.03 202.914 3892.03 188.971V133.886C3892.03 131.829 3893.63 130.229 3895.69 130.229H3926.56C3928.62 130.229 3930.45 131.829 3930.45 133.886V238.571C3930.45 240.629 3928.62 242.229 3926.56 242.229H3896.6C3894.54 242.229 3893.17 241.314 3892.94 238.343L3892.03 225.771C3885.62 237.2 3875.56 244.971 3859.78 244.971C3836.68 244.971 3819.52 227.6 3819.52 198.571ZM3964.53 207.257V159.714H3950.58C3948.52 159.714 3947.15 158.114 3947.15 156.057V133.886C3947.15 131.829 3948.52 130.229 3950.58 130.229H3964.53V104.171C3964.53 102.114 3966.13 100.514 3968.19 100.514H3999.75C4001.81 100.514 4003.41 102.114 4003.41 104.171V130.229H4020.11C4022.16 130.229 4023.76 131.829 4023.76 133.886V156.057C4023.76 158.114 4022.16 159.714 4020.11 159.714H4003.41V203.143C4003.41 208.629 4007.53 211.829 4013.02 211.829C4015.07 211.829 4016.9 212.057 4020.11 211.829C4021.93 211.6 4023.99 212.743 4023.99 215.029V236.057C4023.99 242 4011.19 243.6 4002.95 243.6C3983.97 243.6 3964.53 235.143 3964.53 207.257Z" fill="#202020"/>
<path d="M4178.66 150.682L4177.35 146.781C4175.18 140.267 4169.42 136.053 4162.67 136.053C4161.18 136.053 4159.16 136.053 4156.66 137.021L4149.63 139.543V129.196C4149.63 119.924 4142.9 113.196 4133.62 113.196H4129.96C4120.69 113.196 4113.95 119.924 4113.95 129.196V139.589L4106.68 137.013C4104.18 136.053 4101.92 136.053 4100.69 136.053C4093.94 136.053 4088.18 140.267 4086.01 146.781L4084.92 150.027C4083.99 152.48 4083.99 154.491 4083.99 155.71C4083.99 162.773 4088.22 168.488 4095.03 170.644L4103.35 173.379L4096.37 181.905C4093.81 184.93 4092.46 188.518 4092.46 192.289C4092.46 197.227 4094.68 201.562 4098.73 204.541L4101.43 206.819C4104.47 209.425 4108.09 210.804 4111.9 210.804C4116.86 210.804 4121.43 208.396 4124.48 204.175L4131.79 194.91L4139.11 204.175C4142.16 208.389 4146.73 210.804 4151.69 210.804C4155.5 210.804 4159.12 209.425 4162.12 206.857L4164.99 204.434C4168.95 201.288 4171.13 196.983 4171.13 192.289C4171.13 188.51 4169.77 184.907 4167.19 181.882L4160.1 173.356L4168.4 170.621C4175.07 168.404 4179.37 162.552 4179.37 155.718C4179.37 154.141 4179.08 152.785 4178.86 151.695L4178.66 150.69V150.682Z" fill="#202020"/>
<path d="M4239.37 238.686V86C4239.37 83.9429 4240.74 82.3429 4242.8 82.3429H4275.5C4277.56 82.3429 4279.16 83.9429 4279.16 86V146.571H4330.17V86C4330.17 83.9429 4331.77 82.3429 4333.83 82.3429H4366.53C4368.59 82.3429 4369.96 83.9429 4369.96 86V238.686C4369.96 240.743 4368.59 242.343 4366.53 242.343H4333.83C4331.77 242.343 4330.17 240.743 4330.17 238.686V181.543H4279.16V238.686C4279.16 240.743 4277.56 242.343 4275.5 242.343H4242.8C4240.74 242.343 4239.37 240.743 4239.37 238.686ZM4390.32 185.886C4390.32 152.971 4413.42 127.6 4448.41 127.6C4483.4 127.6 4502.62 152.514 4502.62 181.314C4502.62 193.429 4499.64 200.971 4488.43 200.971H4427.83C4431.94 211.257 4441.78 215.143 4455.73 215.143C4462.13 215.143 4469.45 214.914 4478.83 209.886C4480.66 208.971 4481.8 209.429 4482.95 211.257L4493.47 225.886C4494.38 227.257 4494.61 229.086 4492.32 231.143C4482.95 240.743 4468.54 245.086 4452.53 245.086C4415.7 245.086 4390.32 220.4 4390.32 185.886ZM4468.54 174.686C4466.25 162.8 4458.02 158.914 4448.64 158.914C4439.26 158.914 4430.11 163.257 4427.14 174.686H4468.54ZM4520.68 238.686V82.5715C4520.68 80.5143 4522.28 78.9143 4524.34 78.9143H4555.68C4557.73 78.9143 4559.34 80.5143 4559.34 82.5715V238.686C4559.34 240.743 4557.73 242.343 4555.68 242.343H4524.34C4522.28 242.343 4520.68 240.743 4520.68 238.686ZM4583.12 238.686V82.5715C4583.12 80.5143 4584.72 78.9143 4586.78 78.9143H4618.12C4620.17 78.9143 4621.77 80.5143 4621.77 82.5715V238.686C4621.77 240.743 4620.17 242.343 4618.12 242.343H4586.78C4584.72 242.343 4583.12 240.743 4583.12 238.686ZM4639.84 186.343C4639.84 153.429 4664.77 127.6 4699.08 127.6C4733.39 127.6 4758.09 153.429 4758.09 186.343C4758.09 219.257 4733.16 245.086 4699.08 245.086C4665 245.086 4639.84 219.257 4639.84 186.343ZM4699.08 209.886C4711.2 209.886 4721.26 201.2 4721.26 186.343C4721.26 171.486 4711.2 162.8 4699.08 162.8C4686.96 162.8 4676.67 171.486 4676.67 186.343C4676.67 201.2 4686.73 209.886 4699.08 209.886Z" fill="#202020"/>
<path d="M4912.75 150.682L4911.45 146.781C4909.28 140.267 4903.51 136.053 4896.76 136.053C4895.28 136.053 4893.25 136.053 4890.75 137.021L4883.73 139.543V129.196C4883.73 119.924 4877 113.196 4867.72 113.196H4864.06C4854.78 113.196 4848.05 119.924 4848.05 129.196V139.589L4840.78 137.013C4838.28 136.053 4836.01 136.053 4834.78 136.053C4828.04 136.053 4822.27 140.267 4820.1 146.781L4819.02 150.027C4818.09 152.48 4818.09 154.491 4818.09 155.71C4818.09 162.773 4822.32 168.488 4829.13 170.644L4837.44 173.379L4830.47 181.905C4827.91 184.93 4826.55 188.518 4826.55 192.289C4826.55 197.227 4828.78 201.562 4832.82 204.541L4835.52 206.819C4838.56 209.425 4842.19 210.804 4845.99 210.804C4850.95 210.804 4855.52 208.396 4858.57 204.175L4865.89 194.91L4873.21 204.175C4876.26 208.389 4880.82 210.804 4885.79 210.804C4889.59 210.804 4893.21 209.425 4896.22 206.857L4899.08 204.434C4903.05 201.288 4905.23 196.983 4905.23 192.289C4905.23 188.51 4903.86 184.907 4901.29 181.882L4894.2 173.356L4902.5 170.621C4909.16 168.404 4913.46 162.552 4913.46 155.718C4913.46 154.141 4913.18 152.785 4912.96 151.695L4912.75 150.69V150.682Z" fill="#202020"/>
<path d="M4973.46 242.8V90.1143C4973.46 88.0571 4974.83 86.4571 4976.89 86.4571H5009.6C5011.66 86.4571 5013.26 88.0571 5013.26 90.1143V150.686H5064.26V90.1143C5064.26 88.0571 5065.86 86.4571 5067.92 86.4571H5100.63C5102.68 86.4571 5104.06 88.0571 5104.06 90.1143V242.8C5104.06 244.857 5102.68 246.457 5100.63 246.457H5067.92C5065.86 246.457 5064.26 244.857 5064.26 242.8V185.657H5013.26V242.8C5013.26 244.857 5011.66 246.457 5009.6 246.457H4976.89C4974.83 246.457 4973.46 244.857 4973.46 242.8ZM5123.27 215.6C5123.27 192.057 5138.13 184.057 5162.61 181.086L5191.42 177.657V173.086C5191.42 164.857 5187.08 161.657 5177.02 161.657C5166.95 161.657 5163.29 165.086 5163.06 171.029C5162.84 172.171 5161.92 173.086 5159.86 173.086H5132.19C5130.13 173.086 5128.3 171.943 5128.53 169.657C5129.21 141.086 5149.57 131.714 5178.62 131.714C5213.15 131.714 5230.31 143.6 5230.31 176.743V208.286C5230.31 211.943 5230.99 216.286 5234.42 217.886C5236.48 218.8 5237.62 220.4 5237.62 222.686V242.8C5237.62 248.286 5231.91 247.829 5224.13 247.829C5212.47 247.829 5199.89 245.771 5193.94 234.571C5183.19 246 5171.07 249.429 5158.72 249.429C5138.13 249.429 5123.27 238.457 5123.27 215.6ZM5172.44 219.257C5177.47 219.257 5185.02 218.8 5191.42 213.086V201.886L5167.64 205.314C5163.52 206.229 5161.23 208.057 5161.23 212.171C5161.23 216.514 5163.75 219.257 5172.44 219.257ZM5257.75 242.8V86.6857C5257.75 84.6286 5259.35 83.0286 5261.41 83.0286H5292.74C5294.8 83.0286 5296.4 84.6286 5296.4 86.6857V242.8C5296.4 244.857 5294.8 246.457 5292.74 246.457H5261.41C5259.35 246.457 5257.75 244.857 5257.75 242.8ZM5320.19 242.8V86.6857C5320.19 84.6286 5321.79 83.0286 5323.85 83.0286H5355.18C5357.24 83.0286 5358.84 84.6286 5358.84 86.6857V242.8C5358.84 244.857 5357.24 246.457 5355.18 246.457H5323.85C5321.79 246.457 5320.19 244.857 5320.19 242.8ZM5375.77 215.6C5375.77 192.057 5390.63 184.057 5415.11 181.086L5443.92 177.657V173.086C5443.92 164.857 5439.58 161.657 5429.51 161.657C5419.45 161.657 5415.79 165.086 5415.56 171.029C5415.33 172.171 5414.42 173.086 5412.36 173.086H5384.69C5382.63 173.086 5380.8 171.943 5381.03 169.657C5381.71 141.086 5402.07 131.714 5431.12 131.714C5465.65 131.714 5482.8 143.6 5482.8 176.743V208.286C5482.8 211.943 5483.49 216.286 5486.92 217.886C5488.98 218.8 5490.12 220.4 5490.12 222.686V242.8C5490.12 248.286 5484.41 247.829 5476.63 247.829C5464.96 247.829 5452.39 245.771 5446.44 234.571C5435.69 246 5423.57 249.429 5411.22 249.429C5390.63 249.429 5375.77 238.457 5375.77 215.6ZM5433.4 74.5714C5449.18 74.5714 5459.25 86.6857 5459.25 100.629C5459.25 114.571 5449.18 125.771 5433.4 125.771C5417.62 125.771 5407.33 114.343 5407.33 100.629C5407.33 86.9143 5417.39 74.5714 5433.4 74.5714ZM5424.94 219.257C5429.97 219.257 5437.52 218.8 5443.92 213.086V201.886L5420.14 205.314C5416.02 206.229 5413.73 208.057 5413.73 212.171C5413.73 216.514 5416.25 219.257 5424.94 219.257ZM5433.4 105.2C5436.15 105.2 5438.21 102.686 5438.21 100.171C5438.21 97.6571 5436.15 95.1428 5433.4 95.1428C5430.43 95.1428 5428.37 97.6571 5428.37 100.171C5428.37 102.686 5430.43 105.2 5433.4 105.2Z" fill="#202020"/>
<path d="M5644.79 150.686L5643.48 146.785C5641.31 140.27 5635.55 136.057 5628.8 136.057C5627.31 136.057 5625.29 136.057 5622.79 137.025L5615.76 139.547V129.2C5615.76 119.928 5609.03 113.2 5599.75 113.2H5596.1C5586.82 113.2 5580.09 119.928 5580.09 129.2V139.592L5572.81 137.017C5570.31 136.057 5568.05 136.057 5566.82 136.057C5560.07 136.057 5554.31 140.27 5552.14 146.785L5551.05 150.03C5550.12 152.484 5550.12 154.495 5550.12 155.714C5550.12 162.777 5554.35 168.491 5561.16 170.648L5569.48 173.383L5562.5 181.901C5559.94 184.926 5558.59 188.514 5558.59 192.286C5558.59 197.223 5560.81 201.558 5564.86 204.537L5567.56 206.815C5570.6 209.421 5574.22 210.8 5578.03 210.8C5582.99 210.8 5587.56 208.385 5590.61 204.171L5597.92 194.907L5605.24 204.171C5608.29 208.385 5612.86 210.8 5617.82 210.8C5621.63 210.8 5625.25 209.421 5628.25 206.853L5631.12 204.43C5635.08 201.284 5637.26 196.979 5637.26 192.286C5637.26 188.499 5635.9 184.903 5633.32 181.878L5626.23 173.352L5634.53 170.617C5641.2 168.4 5645.5 162.549 5645.5 155.714C5645.5 154.137 5645.21 152.781 5644.99 151.691L5644.78 150.686H5644.79Z" fill="#202020"/>
<path d="M5705.5 238.571V85.8857C5705.5 83.8286 5706.87 82.2286 5708.93 82.2286H5741.63C5743.69 82.2286 5745.29 83.8286 5745.29 85.8857V146.457H5796.3V85.8857C5796.3 83.8286 5797.9 82.2286 5799.96 82.2286H5832.66C5834.72 82.2286 5836.09 83.8286 5836.09 85.8857V238.571C5836.09 240.629 5834.72 242.229 5832.66 242.229H5799.96C5797.9 242.229 5796.3 240.629 5796.3 238.571V181.429H5745.29V238.571C5745.29 240.629 5743.69 242.229 5741.63 242.229H5708.93C5706.87 242.229 5705.5 240.629 5705.5 238.571ZM5855.3 211.371C5855.3 187.829 5870.17 179.829 5894.64 176.857L5923.46 173.429V168.857C5923.46 160.629 5919.11 157.429 5909.05 157.429C5898.99 157.429 5895.33 160.857 5895.1 166.8C5894.87 167.943 5893.96 168.857 5891.9 168.857H5864.22C5862.17 168.857 5860.34 167.714 5860.56 165.429C5861.25 136.857 5881.61 127.486 5910.65 127.486C5945.19 127.486 5962.34 139.371 5962.34 172.514V204.057C5962.34 207.714 5963.03 212.057 5966.46 213.657C5968.52 214.571 5969.66 216.171 5969.66 218.457V238.571C5969.66 244.057 5963.94 243.6 5956.17 243.6C5944.5 243.6 5931.92 241.543 5925.98 230.343C5915.23 241.771 5903.1 245.2 5890.75 245.2C5870.17 245.2 5855.3 234.229 5855.3 211.371ZM5904.48 215.029C5909.51 215.029 5917.06 214.571 5923.46 208.857V197.657L5899.67 201.086C5895.56 202 5893.27 203.829 5893.27 207.943C5893.27 212.286 5895.79 215.029 5904.48 215.029ZM5989.79 238.571V82.4571C5989.79 80.4 5991.39 78.8 5993.45 78.8H6024.78C6026.84 78.8 6028.44 80.4 6028.44 82.4571V238.571C6028.44 240.629 6026.84 242.229 6024.78 242.229H5993.45C5991.39 242.229 5989.79 240.629 5989.79 238.571ZM6046.51 186.229C6046.51 153.314 6071.44 127.486 6105.74 127.486C6140.05 127.486 6164.75 153.314 6164.75 186.229C6164.75 219.143 6139.82 244.971 6105.74 244.971C6071.67 244.971 6046.51 219.143 6046.51 186.229ZM6105.74 209.771C6117.87 209.771 6127.93 201.086 6127.93 186.229C6127.93 171.371 6117.87 162.686 6105.74 162.686C6093.62 162.686 6083.33 171.371 6083.33 186.229C6083.33 201.086 6093.39 209.771 6105.74 209.771Z" fill="#202020"/>
<path d="M6319.42 150.686L6318.11 146.785C6315.94 140.27 6310.18 136.057 6303.43 136.057C6301.94 136.057 6299.91 136.057 6297.41 137.025L6290.39 139.547V129.2C6290.39 119.928 6283.66 113.2 6274.38 113.2H6270.72C6261.44 113.2 6254.71 119.928 6254.71 129.2V139.592L6247.44 137.017C6244.94 136.057 6242.67 136.057 6241.45 136.057C6234.7 136.057 6228.94 140.27 6226.76 146.785L6225.68 150.038C6224.75 152.491 6224.75 154.503 6224.75 155.722C6224.75 162.785 6228.98 168.499 6235.79 170.648L6244.11 173.383L6237.13 181.901C6234.57 184.926 6233.21 188.514 6233.21 192.286C6233.21 197.223 6235.44 201.558 6239.49 204.537L6242.19 206.815C6245.23 209.421 6248.85 210.8 6252.65 210.8C6257.62 210.8 6262.18 208.385 6265.23 204.171L6272.55 194.907L6279.87 204.171C6282.92 208.385 6287.49 210.8 6292.45 210.8C6296.26 210.8 6299.88 209.421 6302.88 206.846L6305.75 204.423C6309.71 201.276 6311.89 196.971 6311.89 192.278C6311.89 188.491 6310.53 184.895 6307.95 181.87L6300.86 173.345L6309.16 170.61C6315.83 168.392 6320.12 162.541 6320.12 155.707C6320.12 154.13 6319.84 152.773 6319.61 151.684L6319.41 150.678L6319.42 150.686Z" fill="#202020"/>
<path d="M6437.3 258.571C6421.29 258.571 6407.76 253.733 6396.71 244.057C6385.65 234.381 6380.12 222.305 6380.12 207.829C6380.12 194.571 6385.39 182.61 6395.91 171.943C6406.43 161.276 6421.37 153.429 6440.73 148.4C6441.95 148.095 6442.56 147.257 6442.56 145.886V121.429C6442.56 120.21 6441.88 119.6 6440.51 119.6H6403.68C6400.18 119.6 6397.13 118.305 6394.53 115.714C6391.94 113.124 6390.65 110.076 6390.65 106.571V103.143C6390.65 99.6381 6391.94 96.5905 6394.53 94C6397.13 91.4095 6400.18 90.1143 6403.68 90.1143H6440.51C6441.88 90.1143 6442.56 89.5047 6442.56 88.2857V76.4C6442.56 72.8952 6443.86 69.8857 6446.45 67.3714C6449.04 64.8571 6452.09 63.6 6455.6 63.6H6464.75C6468.26 63.6 6471.27 64.8571 6473.78 67.3714C6476.3 69.8857 6477.56 72.8952 6477.56 76.4V88.2857C6477.56 89.5047 6478.24 90.1143 6479.62 90.1143H6511.63C6515.14 90.1143 6518.15 91.4095 6520.67 94C6523.18 96.5905 6524.44 99.6381 6524.44 103.143V106.571C6524.44 110.076 6523.18 113.124 6520.67 115.714C6518.15 118.305 6515.14 119.6 6511.63 119.6H6479.62C6478.24 119.6 6477.56 120.21 6477.56 121.429V141.086C6477.56 142.305 6478.24 142.914 6479.62 142.914C6480.53 142.914 6481.9 142.876 6483.73 142.8C6485.56 142.724 6486.93 142.686 6487.85 142.686C6510.26 142.686 6528.44 148.095 6542.4 158.914C6556.35 169.733 6563.32 182.914 6563.32 198.457C6563.32 231.371 6545.56 251.638 6510.03 259.257C6506.53 260.019 6503.29 259.371 6500.31 257.314C6497.34 255.257 6495.4 252.4 6494.48 248.743L6492.88 242.571C6492.12 239.219 6492.65 236.095 6494.48 233.2C6496.31 230.305 6498.9 228.4 6502.26 227.486C6519.03 223.219 6527.42 214.152 6527.42 200.286C6527.42 193.581 6523.76 187.829 6516.44 183.029C6509.12 178.229 6499.59 175.829 6487.85 175.829C6486.78 175.829 6485.33 175.867 6483.5 175.943C6481.67 176.019 6480.3 176.057 6479.39 176.057C6478.17 176.057 6477.56 176.743 6477.56 178.114V218.114C6477.56 233.657 6474.66 244.286 6468.87 250C6463.07 255.714 6452.55 258.571 6437.3 258.571ZM6440.73 182.229C6423.66 188.019 6415.12 196.552 6415.12 207.829C6415.12 212.552 6417.06 216.895 6420.95 220.857C6424.84 224.819 6428.99 226.8 6433.41 226.8C6437.07 226.8 6439.51 226.114 6440.73 224.743C6441.95 223.371 6442.56 220.4 6442.56 215.829V183.6C6442.56 182.381 6441.95 181.924 6440.73 182.229ZM6561.95 91.9428C6571.71 106.571 6578.57 117.162 6582.54 123.714C6584.37 126.762 6584.82 130.038 6583.91 133.543C6582.99 137.048 6581.01 139.638 6577.96 141.314L6574.99 142.914C6571.79 144.59 6568.47 144.971 6565.04 144.057C6561.61 143.143 6558.98 141.162 6557.15 138.114C6551.2 128.514 6544.72 118.381 6537.71 107.714C6535.73 104.819 6535.08 101.619 6535.76 98.1143C6536.45 94.6095 6538.24 91.8666 6541.14 89.8857L6543.88 88.2857C6546.78 86.3047 6550.02 85.6952 6553.6 86.4571C6557.19 87.219 6559.97 89.0476 6561.95 91.9428ZM6670.59 260.4C6657.02 260.4 6644.48 251.486 6632.97 233.657C6621.45 215.829 6615.7 194.038 6615.7 168.286C6615.7 144.971 6618.52 122.038 6624.16 99.4857C6625.08 95.8285 6627.1 92.9714 6630.22 90.9143C6633.35 88.8571 6636.82 88.0571 6640.63 88.5143L6650.69 89.6571C6654.05 89.9619 6656.68 91.5238 6658.58 94.3428C6660.49 97.1619 6661.06 100.248 6660.3 103.6C6655.11 126 6652.52 147.562 6652.52 168.286C6652.52 183.676 6654.85 196.743 6659.5 207.486C6664.15 218.229 6668.76 223.6 6673.33 223.6C6676.23 223.6 6680.08 220.59 6684.88 214.571C6689.69 208.552 6694.68 199.905 6699.87 188.629C6701.39 185.276 6703.79 182.914 6707.07 181.543C6710.35 180.171 6713.66 180.095 6717.02 181.314L6724.34 184.057C6727.84 185.276 6730.32 187.524 6731.77 190.8C6733.22 194.076 6733.26 197.39 6731.88 200.743C6723.96 219.638 6714.39 234.305 6703.18 244.743C6691.97 255.181 6681.11 260.4 6670.59 260.4ZM6767.79 222.686C6766.42 182 6758.72 143.371 6744.69 106.8C6743.47 103.6 6743.63 100.438 6745.15 97.3143C6746.68 94.1905 6749.11 92.1714 6752.47 91.2571L6761.39 88.7428C6764.9 87.6762 6768.37 87.9428 6771.8 89.5428C6775.23 91.1428 6777.7 93.619 6779.23 96.9714C6794.93 134.457 6803.47 176.438 6804.84 222.914C6805 226.419 6803.78 229.429 6801.19 231.943C6798.59 234.457 6795.54 235.714 6792.04 235.714H6781.06C6777.55 235.714 6774.5 234.419 6771.91 231.829C6769.32 229.238 6767.95 226.19 6767.79 222.686Z" fill="#202020"/>
<path d="M6959.52 150.686L6958.22 146.785C6956.05 140.27 6950.28 136.057 6943.53 136.057C6942.05 136.057 6940.02 136.057 6937.52 137.025L6930.5 139.547V129.2C6930.5 119.928 6923.77 113.2 6914.49 113.2H6910.83C6901.55 113.2 6894.82 119.928 6894.82 129.2V139.592L6887.55 137.017C6885.04 136.057 6882.78 136.057 6881.55 136.057C6874.81 136.057 6869.04 140.27 6866.87 146.785L6865.79 150.038C6864.86 152.491 6864.86 154.503 6864.86 155.722C6864.86 162.785 6869.09 168.499 6875.9 170.648L6884.21 173.383L6877.24 181.901C6874.68 184.926 6873.32 188.514 6873.32 192.286C6873.32 197.223 6875.55 201.558 6879.59 204.537L6882.29 206.815C6885.33 209.421 6888.96 210.8 6892.76 210.8C6897.72 210.8 6902.29 208.385 6905.34 204.171L6912.66 194.907L6919.98 204.171C6923.03 208.385 6927.59 210.8 6932.56 210.8C6936.36 210.8 6939.98 209.421 6942.99 206.846L6945.85 204.423C6949.82 201.276 6952 196.971 6952 192.278C6952 188.491 6950.63 184.895 6948.06 181.87L6940.96 173.345L6949.27 170.61C6955.93 168.392 6960.23 162.541 6960.23 155.707C6960.23 154.13 6959.95 152.773 6959.72 151.684L6959.51 150.678L6959.52 150.686Z" fill="#202020"/>
<path d="M7317.56 152.392C7293.31 133.878 7266.55 119.021 7226.07 119.021C7185.59 119.021 7172.55 132.507 7172.55 156.735V162C7172.55 164.057 7173.93 165.429 7175.98 165.429H7209.15C7211.21 165.429 7212.58 164.057 7212.58 162C7212.58 154.686 7219.44 152.629 7229.04 152.629C7243 152.629 7256.95 156.514 7281.88 166.343C7254.43 177.771 7224.47 179.6 7175.76 179.6H7166.15C7151.74 179.6 7145.79 170.686 7145.79 157.421V150.343C7145.79 148.278 7144.65 147.135 7142.59 147.135H7108.97C7106.91 147.135 7105.77 148.278 7105.77 150.343V157.421C7105.77 170.686 7099.82 179.6 7085.41 179.6H7083.13C7068.03 179.6 7060.03 171.143 7060.03 157.657V62.3429C7060.03 60.2857 7058.88 59.1429 7056.82 59.1429H7023.43C7021.37 59.1429 7020.23 60.2857 7020.23 62.3429V159.265C7020.23 199.036 7044.7 214.579 7072.61 214.579H7085.41C7101.42 214.579 7116.52 211.836 7125.9 195.379C7135.27 211.836 7150.37 214.579 7166.15 214.579H7181.24C7227.22 214.579 7258.09 212.065 7316.64 189.436C7318.7 188.75 7320.99 186.922 7320.99 184.408V159.265C7320.99 156.286 7319.16 153.779 7317.56 152.4V152.392ZM7125.9 230.114C7115.83 230.114 7108.06 237.657 7108.06 247.486C7108.06 257.314 7115.83 264.857 7125.9 264.857C7135.96 264.857 7143.51 257.314 7143.51 247.486C7143.51 237.657 7135.96 230.114 7125.9 230.114ZM7502.13 124.05C7479.94 124.05 7463.24 134.564 7450.66 152.392L7444.49 161.543C7437.63 171.371 7433.74 179.6 7422.31 179.6H7422.3C7407.9 179.6 7401.72 172.971 7401.72 157.2V150.343C7401.72 148.278 7400.58 147.135 7398.52 147.135H7365.13C7363.07 147.135 7361.93 148.278 7361.93 150.343V203.829C7361.93 215.257 7353.92 221.886 7340.43 221.886C7332.19 221.886 7327.39 219.829 7325.1 218.914C7322.36 217.771 7319.62 219.371 7319.62 223.029V248.629C7319.62 252.286 7321.67 254.114 7324.88 255.943C7327.62 257.771 7336.31 260.286 7346.6 260.286C7371.76 260.286 7401.72 244.743 7401.72 211.6V208.171C7407.44 213.429 7414.98 214.571 7422.3 214.571H7422.31C7440.83 214.571 7457.07 210 7466.91 194.686L7475.14 181.657C7484.98 166.8 7493.89 161.086 7500.3 161.086C7505.1 161.086 7511.05 164.514 7511.05 170C7511.05 174.571 7506.93 177.543 7502.81 177.543C7500.3 177.543 7499.15 176.857 7496.64 175.257C7495.04 174.114 7493.21 173.886 7491.61 175.714L7475.6 193.543C7474 195.143 7473.31 197.657 7475.14 199.943C7480.86 209.086 7492.52 215.486 7506.93 215.486C7530.03 215.486 7550.84 198.571 7550.84 170.229C7550.84 139.592 7527.97 124.05 7502.13 124.05Z" fill="#202020"/>
<path d="M7705.51 150.686L7704.2 146.785C7702.03 140.27 7696.27 136.057 7689.52 136.057C7688.03 136.057 7686.01 136.057 7683.51 137.025L7676.48 139.547V129.2C7676.48 119.928 7669.75 113.2 7660.47 113.2H7656.81C7647.54 113.2 7640.8 119.928 7640.8 129.2V139.592L7633.53 137.017C7631.03 136.057 7628.77 136.057 7627.54 136.057C7620.79 136.057 7615.03 140.27 7612.86 146.785L7611.77 150.038C7610.84 152.491 7610.84 154.503 7610.84 155.722C7610.84 162.785 7615.07 168.499 7621.88 170.648L7630.2 173.383L7623.22 181.901C7620.66 184.926 7619.31 188.514 7619.31 192.286C7619.31 197.223 7621.53 201.558 7625.58 204.537L7628.28 206.815C7631.32 209.421 7634.94 210.8 7638.75 210.8C7643.71 210.8 7648.28 208.385 7651.33 204.171L7658.64 194.907L7665.96 204.171C7669.01 208.385 7673.58 210.8 7678.54 210.8C7682.35 210.8 7685.97 209.421 7688.97 206.846L7691.84 204.423C7695.8 201.276 7697.98 196.971 7697.98 192.278C7697.98 188.491 7696.62 184.895 7694.04 181.87L7686.95 173.345L7695.25 170.61C7701.92 168.392 7706.22 162.541 7706.22 155.707C7706.22 154.13 7705.93 152.773 7705.71 151.684L7705.5 150.678L7705.51 150.686Z" fill="#202020"/>
<path d="M7766.22 175.029V109.886C7766.22 107.829 7767.59 106.229 7769.65 106.229H7802.35C7804.41 106.229 7806.01 107.829 7806.01 109.886V149.2H7811.04C7820.42 149.2 7822.71 143.714 7822.71 132.743V109.429C7822.71 107.371 7823.85 106.229 7825.91 106.229H7858.16C7860.22 106.229 7861.36 107.371 7861.36 109.429V140.514C7861.36 167.943 7841.69 182.8 7818.36 182.8H7807.61C7811.5 198.8 7822.02 204.971 7841.46 204.971C7866.85 204.971 7876.68 194.457 7876.68 165.429V109.886C7876.68 107.829 7878.29 106.229 7880.34 106.229H7913.05C7915.11 106.229 7916.48 107.829 7916.48 109.886V175.029C7916.48 221.2 7884.69 242.914 7841.46 242.914C7798.24 242.914 7766.22 221.2 7766.22 175.029ZM7948.73 237.429V209.543C7948.73 207.486 7950.1 206.114 7952.16 206.114H7955.13C7996.3 206.114 8015.29 173.657 8015.29 147.371V146.914C8015.29 143.486 8013 141.2 8009.57 141.2H7951.93C7944.61 141.2 7939.12 136.4 7939.12 128.857V84.7428C7939.12 82.6857 7940.5 81.0857 7942.55 81.0857H7974.35C7976.4 81.0857 7978 82.6857 7978 84.7428V106.229H8042.96C8050.05 106.229 8054.85 111.029 8054.85 118.114V149.657C8054.85 176.629 8036.33 241.086 7957.42 241.086H7952.16C7950.1 241.086 7948.73 239.486 7948.73 237.429ZM8090.53 237.429V148.743C8090.53 143.257 8088.24 141.429 8083.21 141.429H8072.46C8070.41 141.429 8069.03 139.829 8069.03 137.771V109.886C8069.03 107.829 8070.41 106.229 8072.46 106.229H8102.65C8120.04 106.229 8130.33 115.6 8130.33 132.971V237.429C8130.33 239.486 8128.73 241.086 8126.67 241.086H8093.96C8091.9 241.086 8090.53 239.486 8090.53 237.429ZM8156.4 237.429V109.429C8156.4 107.371 8157.54 106.229 8159.6 106.229H8234.85C8267.56 106.229 8286.08 122 8286.08 151.257V237.429C8286.08 239.486 8284.48 241.086 8282.42 241.086H8159.83C8157.77 241.086 8156.4 239.486 8156.4 237.429ZM8246.29 205.886V170.914C8246.29 150.8 8243.08 141.2 8219.53 141.2H8196.2V205.886H8246.29Z" fill="#202020"/>
<path d="M8440.75 150.686L8439.44 146.785C8437.27 140.27 8431.51 136.057 8424.76 136.057C8423.27 136.057 8421.24 136.057 8418.74 137.025L8411.72 139.547V129.2C8411.72 119.928 8404.99 113.2 8395.71 113.2H8392.05C8382.77 113.2 8376.04 119.928 8376.04 129.2V139.592L8368.77 137.017C8366.27 136.057 8364 136.057 8362.78 136.057C8356.03 136.057 8350.27 140.27 8348.09 146.785L8347.01 150.038C8346.08 152.491 8346.08 154.503 8346.08 155.722C8346.08 162.785 8350.31 168.499 8357.12 170.648L8365.44 173.383L8358.46 181.901C8355.9 184.926 8354.54 188.514 8354.54 192.286C8354.54 197.223 8356.77 201.558 8360.82 204.537L8363.52 206.815C8366.56 209.421 8370.18 210.8 8373.98 210.8C8378.95 210.8 8383.51 208.385 8386.56 204.171L8393.88 194.907L8401.2 204.171C8404.25 208.385 8408.82 210.8 8413.78 210.8C8417.58 210.8 8421.21 209.421 8424.21 206.846L8427.08 204.423C8431.04 201.276 8433.22 196.971 8433.22 192.278C8433.22 188.491 8431.86 184.895 8429.28 181.87L8422.19 173.345L8430.49 170.61C8437.15 168.392 8441.45 162.541 8441.45 155.707C8441.45 154.13 8441.17 152.773 8440.94 151.684L8440.74 150.678L8440.75 150.686Z" fill="#202020"/>
<path d="M8501.45 162.914C8501.45 116.514 8538.73 80.4 8584.02 80.4C8629.3 80.4 8666.59 116.514 8666.59 162.914C8666.59 209.314 8629.3 245.2 8584.02 245.2C8538.73 245.2 8501.45 209.086 8501.45 162.914ZM8584.02 206.114C8608.03 206.114 8626.1 187.6 8626.1 162.914C8626.1 138.229 8608.03 119.486 8584.02 119.486C8560 119.486 8541.71 138 8541.71 162.914C8541.71 187.829 8560 206.114 8584.02 206.114ZM8688.08 238.571V82.4571C8688.08 80.4 8689.69 78.8 8691.74 78.8H8723.08C8725.14 78.8 8726.74 80.4 8726.74 82.4571V238.571C8726.74 240.629 8725.14 242.229 8723.08 242.229H8691.74C8689.69 242.229 8688.08 240.629 8688.08 238.571ZM8743.66 211.371C8743.66 187.829 8758.53 179.829 8783 176.857L8811.82 173.429V168.857C8811.82 160.629 8807.47 157.429 8797.41 157.429C8787.35 157.429 8783.69 160.857 8783.46 166.8C8783.23 167.943 8782.31 168.857 8780.26 168.857H8752.58C8750.52 168.857 8748.69 167.714 8748.92 165.429C8749.61 136.857 8769.96 127.486 8799.01 127.486C8833.54 127.486 8850.7 139.371 8850.7 172.514V204.057C8850.7 207.714 8851.38 212.057 8854.82 213.657C8856.87 214.571 8858.02 216.171 8858.02 218.457V238.571C8858.02 244.057 8852.3 243.6 8844.52 243.6C8832.86 243.6 8820.28 241.543 8814.33 230.343C8803.58 241.771 8791.46 245.2 8779.11 245.2C8758.53 245.2 8743.66 234.229 8743.66 211.371ZM8792.83 215.029C8797.87 215.029 8805.41 214.571 8811.82 208.857V197.657L8788.03 201.086C8783.91 202 8781.63 203.829 8781.63 207.943C8781.63 212.286 8784.14 215.029 8792.83 215.029ZM8803.81 84.9714C8805.41 82.9143 8806.33 82.2286 8808.39 82.2286H8831.03C8833.54 82.2286 8834.92 84.2857 8833.32 86.3428L8814.79 112.171C8813.19 114.229 8812.27 114.914 8809.99 114.914H8787.57C8785.06 114.914 8783.91 112.857 8785.52 110.8L8803.81 84.9714Z" fill="#202020"/>
<path d="M9013.4 155.718C9013.4 154.141 9013.12 152.785 9012.89 151.695L9012.68 150.69L9011.38 146.789C9009.21 140.274 9003.44 136.061 8996.69 136.061C8995.21 136.061 8993.18 136.061 8990.68 137.029L8983.66 139.55V129.204C8983.66 119.931 8976.93 113.204 8967.65 113.204H8963.99C8954.71 113.204 8947.98 119.931 8947.98 129.204V139.596L8940.71 137.021C8938.21 136.061 8935.94 136.061 8934.71 136.061C8927.97 136.061 8922.2 140.274 8920.03 146.789L8918.95 150.034C8918.02 152.488 8918.02 154.499 8918.02 155.718C8918.02 162.781 8922.25 168.495 8929.06 170.644L8937.37 173.379L8930.4 181.897C8927.84 184.922 8926.48 188.51 8926.48 192.282C8926.48 197.219 8928.71 201.554 8932.75 204.533L8935.45 206.811C8938.5 209.417 8942.12 210.796 8945.92 210.796C8950.88 210.796 8955.45 208.389 8958.5 204.168L8965.82 194.903L8973.14 204.168C8976.19 208.381 8980.75 210.796 8985.72 210.796C8989.53 210.796 8993.14 209.417 8996.15 206.85L8999.01 204.427C9002.98 201.28 9005.16 196.975 9005.16 192.282C9005.16 188.495 9003.79 184.899 9001.22 181.874L8994.13 173.349L9002.43 170.613C9009.09 168.396 9013.39 162.545 9013.39 155.71L9013.4 155.718Z" fill="#202020"/>
<path d="M9073.4 216.629V63.9428C9073.4 61.8857 9074.77 60.2857 9076.83 60.2857H9195.76C9197.82 60.2857 9199.42 61.8857 9199.42 63.9428V216.629C9199.42 218.686 9197.82 220.286 9195.76 220.286H9163.05C9161 220.286 9159.62 218.686 9159.62 216.629V95.2571H9113.19V216.629C9113.19 218.686 9111.59 220.286 9109.54 220.286H9076.83C9074.77 220.286 9073.4 218.686 9073.4 216.629ZM9225.26 260.057V111.943C9225.26 109.886 9226.86 108.286 9228.92 108.286H9257.28C9259.34 108.286 9260.94 109.886 9260.94 111.943L9261.4 121.086C9268.49 111.257 9279.24 105.543 9295.02 105.543C9325.9 105.543 9347.17 131.371 9347.17 164.286C9347.17 197.2 9325.9 223.029 9295.02 223.029C9281.53 223.029 9271.46 218.457 9263.92 210.457V260.057C9263.92 262.114 9262.31 263.714 9260.26 263.714H9228.92C9226.86 263.714 9225.26 262.114 9225.26 260.057ZM9286.33 188.286C9299.6 188.286 9309.66 178.914 9309.66 164.286C9309.66 149.657 9299.6 140.286 9286.33 140.286C9273.06 140.286 9263.46 149.657 9263.46 164.057C9263.46 178.457 9272.84 188.286 9286.33 188.286ZM9444.14 108.286H9479.59C9481.65 108.286 9483.48 109.886 9483.48 111.943V216.629C9483.48 218.686 9481.65 220.286 9479.59 220.286H9448.26C9446.2 220.286 9444.6 218.686 9444.6 216.629V159.943L9408.23 218C9407.32 219.371 9405.72 220.286 9403.89 220.286H9368.9C9366.84 220.286 9365.24 218.686 9365.24 216.629V111.943C9365.24 109.886 9366.84 108.286 9368.9 108.286H9400.23C9402.29 108.286 9403.89 109.886 9403.89 111.943V167.714L9439.8 110.571C9440.71 109.2 9442.31 108.286 9444.14 108.286ZM9507.04 216.629V111.943C9507.04 109.886 9508.64 108.286 9510.7 108.286H9569.93C9590.98 108.286 9609.96 118.571 9609.96 138.914C9609.96 150.343 9603.55 157.657 9593.95 161.543C9609.04 165.2 9616.82 174.571 9616.82 188.514C9616.82 212.514 9594.18 220.286 9568.79 220.286H9510.7C9508.64 220.286 9507.04 218.686 9507.04 216.629ZM9567.88 152.171C9574.28 152.171 9575.42 148.286 9575.42 145.771C9575.42 143.257 9574.28 139.143 9567.88 139.143H9545.69V152.171H9567.88ZM9573.14 189.429C9576.57 189.429 9580 186.914 9580 182.343C9580 178.229 9576.8 176.171 9574.51 176.171H9545.69V189.429H9573.14ZM9629.17 163.829C9629.17 130.914 9652.27 105.543 9687.26 105.543C9722.26 105.543 9741.47 130.457 9741.47 159.257C9741.47 171.371 9738.5 178.914 9727.29 178.914H9666.68C9670.8 189.2 9680.63 193.086 9694.58 193.086C9700.99 193.086 9708.3 192.857 9717.68 187.829C9719.51 186.914 9720.66 187.371 9721.8 189.2L9732.32 203.829C9733.23 205.2 9733.46 207.029 9731.18 209.086C9721.8 218.686 9707.39 223.029 9691.38 223.029C9654.56 223.029 9629.17 198.343 9629.17 163.829ZM9707.39 152.629C9705.1 140.743 9696.87 136.857 9687.49 136.857C9678.12 136.857 9668.97 141.2 9665.99 152.629H9707.39ZM9774.17 216.857V140.514H9750.39C9748.33 140.514 9746.96 139.143 9746.96 137.086V111.714C9746.96 109.657 9748.33 108.286 9750.39 108.286H9836.61C9838.67 108.286 9840.04 109.657 9840.04 111.714V137.086C9840.04 139.143 9838.67 140.514 9836.61 140.514H9812.6V216.857C9812.6 218.914 9811.23 220.286 9809.17 220.286H9777.61C9775.55 220.286 9774.17 218.914 9774.17 216.857Z" fill="#202020"/>
<path d="M9995.43 155.718C9995.43 154.141 9995.14 152.785 9994.91 151.695L9994.71 150.69L9993.41 146.789C9991.23 140.274 9985.47 136.061 9978.72 136.061C9977.23 136.061 9975.21 136.061 9972.71 137.029L9965.68 139.55V129.204C9965.68 119.931 9958.95 113.204 9949.68 113.204H9946.02C9936.74 113.204 9930.01 119.931 9930.01 129.204V139.596L9922.73 137.021C9920.23 136.061 9917.97 136.061 9916.74 136.061C9909.99 136.061 9904.23 140.274 9902.06 146.789L9900.97 150.034C9900.04 152.488 9900.04 154.499 9900.04 155.718C9900.04 162.781 9904.28 168.495 9911.08 170.644L9919.4 173.379L9912.43 181.897C9909.86 184.922 9908.51 188.51 9908.51 192.282C9908.51 197.219 9910.73 201.554 9914.78 204.533L9917.48 206.811C9920.52 209.417 9924.14 210.796 9927.95 210.796C9932.91 210.796 9937.48 208.389 9940.53 204.168L9947.85 194.903L9955.16 204.168C9958.21 208.381 9962.78 210.796 9967.74 210.796C9971.56 210.796 9975.17 209.417 9978.17 206.85L9981.04 204.427C9985 201.28 9987.18 196.975 9987.18 192.282C9987.18 188.495 9985.82 184.899 9983.24 181.874L9976.15 173.349L9984.45 170.613C9991.12 168.396 9995.42 162.545 9995.42 155.71L9995.43 155.718Z" fill="#202020"/>
<line x1="-519" y1="1.5" x2="10158" y2="1.5" stroke="#202020" stroke-width="3"/>
<line x1="-519" y1="322.5" x2="10158" y2="322.5" stroke="#202020" stroke-width="3"/>
</g>
<defs>
<clipPath id="clip0_65_155">
<rect width="10002" height="324" fill="white"/>
</clipPath>
</defs>
</svg>
